<svg xmlns="http://www.w3.org/2000/svg" xmlns:xlink="http://www.w3.org/1999/xlink" width="500" zoomAndPan="magnify" viewBox="0 0 375 374.999991" height="500" preserveAspectRatio="xMidYMid meet" version="1.0"><defs><clipPath id="c01fbb2f54"><path d="M 102 97 L 150 97 L 150 137 L 102 137 Z M 102 97 " clip-rule="nonzero"/></clipPath><clipPath id="a63a1250fe"><path d="M 151.457031 119.496094 L 112.378906 138.640625 L 100.761719 114.933594 L 139.84375 95.789062 Z M 151.457031 119.496094 " clip-rule="nonzero"/></clipPath><clipPath id="75e018a328"><path d="M 145.847656 122.246094 L 118 135.886719 C 116.511719 136.617188 114.792969 136.722656 113.226562 136.1875 C 111.660156 135.652344 110.367188 134.515625 109.640625 133.027344 L 103.523438 120.539062 C 102.792969 119.050781 102.6875 117.335938 103.222656 115.765625 C 103.757812 114.199219 104.898438 112.910156 106.382812 112.179688 L 134.234375 98.539062 C 135.722656 97.808594 137.4375 97.699219 139.003906 98.238281 C 140.570312 98.773438 141.863281 99.910156 142.589844 101.398438 L 148.707031 113.886719 C 149.4375 115.375 149.546875 117.089844 149.007812 118.65625 C 148.472656 120.226562 147.335938 121.515625 145.847656 122.246094 Z M 145.847656 122.246094 " clip-rule="nonzero"/></clipPath><clipPath id="ba34e9b7d3"><path d="M 0.601562 0.480469 L 47.640625 0.480469 L 47.640625 39.839844 L 0.601562 39.839844 Z M 0.601562 0.480469 " clip-rule="nonzero"/></clipPath><clipPath id="c59612c833"><path d="M 49.457031 22.496094 L 10.378906 41.640625 L -1.238281 17.933594 L 37.84375 -1.210938 Z M 49.457031 22.496094 " clip-rule="nonzero"/></clipPath><clipPath id="a13fab83b4"><path d="M 43.847656 25.246094 L 16 38.886719 C 14.511719 39.617188 12.792969 39.722656 11.226562 39.1875 C 9.660156 38.652344 8.367188 37.515625 7.640625 36.027344 L 1.523438 23.539062 C 0.792969 22.050781 0.6875 20.335938 1.222656 18.765625 C 1.757812 17.199219 2.898438 15.910156 4.382812 15.179688 L 32.234375 1.539062 C 33.722656 0.808594 35.4375 0.699219 37.003906 1.238281 C 38.570312 1.773438 39.863281 2.910156 40.589844 4.398438 L 46.707031 16.886719 C 47.4375 18.375 47.546875 20.089844 47.007812 21.65625 C 46.472656 23.226562 45.335938 24.515625 43.847656 25.246094 Z M 43.847656 25.246094 " clip-rule="nonzero"/></clipPath><clipPath id="5d50f8b091"><rect x="0" width="48" y="0" height="40"/></clipPath><clipPath id="733db2a0bc"><path d="M 0.359375 0.28125 L 227.398438 0.28125 L 227.398438 183.398438 L 0.359375 183.398438 Z M 0.359375 0.28125 " clip-rule="nonzero"/></clipPath><clipPath id="0aab25f8a7"><rect x="0" width="228" y="0" height="184"/></clipPath><clipPath id="ea63f85141"><path d="M 59 63 L 82 63 L 82 92 L 59 92 Z M 59 63 " clip-rule="nonzero"/></clipPath><clipPath id="033cfb2aee"><path d="M 83.140625 68.117188 L 73.140625 93.25 L 57.890625 87.183594 L 67.894531 62.046875 Z M 83.140625 68.117188 " clip-rule="nonzero"/></clipPath><clipPath id="e60bda9404"><path d="M 80.832031 73.921875 L 75.453125 87.4375 C 74.839844 88.976562 73.640625 90.210938 72.117188 90.867188 C 70.597656 91.523438 68.878906 91.546875 67.339844 90.933594 L 63.699219 89.484375 C 62.160156 88.871094 60.925781 87.671875 60.273438 86.152344 C 59.617188 84.628906 59.59375 82.910156 60.207031 81.371094 L 65.585938 67.851562 C 66.199219 66.3125 67.394531 65.082031 68.917969 64.425781 C 70.441406 63.769531 72.160156 63.746094 73.699219 64.359375 L 77.335938 65.804688 C 78.875 66.417969 80.109375 67.617188 80.765625 69.140625 C 81.421875 70.660156 81.445312 72.378906 80.832031 73.921875 Z M 80.832031 73.921875 " clip-rule="nonzero"/></clipPath><clipPath id="63129fa3b0"><path d="M 0.398438 0.519531 L 22.480469 0.519531 L 22.480469 28.601562 L 0.398438 28.601562 Z M 0.398438 0.519531 " clip-rule="nonzero"/></clipPath><clipPath id="007d10d6a9"><path d="M 24.140625 5.117188 L 14.140625 30.25 L -1.109375 24.183594 L 8.894531 -0.953125 Z M 24.140625 5.117188 " clip-rule="nonzero"/></clipPath><clipPath id="7b0b6f91f7"><path d="M 21.832031 10.921875 L 16.453125 24.4375 C 15.839844 25.976562 14.640625 27.210938 13.117188 27.867188 C 11.597656 28.523438 9.878906 28.546875 8.339844 27.933594 L 4.699219 26.484375 C 3.160156 25.871094 1.925781 24.671875 1.273438 23.152344 C 0.617188 21.628906 0.59375 19.910156 1.207031 18.371094 L 6.585938 4.851562 C 7.199219 3.3125 8.394531 2.082031 9.917969 1.425781 C 11.441406 0.769531 13.160156 0.746094 14.699219 1.359375 L 18.335938 2.804688 C 19.875 3.417969 21.109375 4.617188 21.765625 6.140625 C 22.421875 7.660156 22.445312 9.378906 21.832031 10.921875 Z M 21.832031 10.921875 " clip-rule="nonzero"/></clipPath><clipPath id="0c18f43cd8"><rect x="0" width="23" y="0" height="29"/></clipPath><clipPath id="de80916a70"><path d="M 0.839844 0.878906 L 107.878906 0.878906 L 107.878906 141.28125 L 0.839844 141.28125 Z M 0.839844 0.878906 " clip-rule="nonzero"/></clipPath><clipPath id="d16e39adbf"><rect x="0" width="108" y="0" height="142"/></clipPath><clipPath id="a4a65657d0"><path d="M 86 86 L 122 86 L 122 123 L 86 123 Z M 86 86 " clip-rule="nonzero"/></clipPath><clipPath id="9671ade1dc"><path d="M 123.910156 98.800781 L 99.984375 124.730469 L 84.253906 110.214844 L 108.179688 84.285156 Z M 123.910156 98.800781 " clip-rule="nonzero"/></clipPath><clipPath id="62481775a7"><path d="M 119.675781 103.390625 L 104.226562 120.132812 C 103.101562 121.351562 101.542969 122.070312 99.886719 122.140625 C 98.230469 122.207031 96.617188 121.609375 95.398438 120.488281 L 88.851562 114.445312 C 87.632812 113.320312 86.910156 111.761719 86.84375 110.105469 C 86.777344 108.449219 87.371094 106.835938 88.496094 105.617188 L 103.945312 88.875 C 105.070312 87.660156 106.628906 86.9375 108.285156 86.871094 C 109.941406 86.804688 111.554688 87.398438 112.773438 88.519531 L 119.320312 94.5625 C 120.539062 95.6875 121.261719 97.25 121.328125 98.90625 C 121.394531 100.558594 120.800781 102.175781 119.675781 103.390625 Z M 119.675781 103.390625 " clip-rule="nonzero"/></clipPath><clipPath id="0712c40e1d"><path d="M 0.761719 0.761719 L 35.558594 0.761719 L 35.558594 36.28125 L 0.761719 36.28125 Z M 0.761719 0.761719 " clip-rule="nonzero"/></clipPath><clipPath id="912e091bbd"><path d="M 37.910156 12.800781 L 13.984375 38.730469 L -1.746094 24.214844 L 22.179688 -1.714844 Z M 37.910156 12.800781 " clip-rule="nonzero"/></clipPath><clipPath id="ff098e8c8e"><path d="M 33.675781 17.390625 L 18.226562 34.132812 C 17.101562 35.351562 15.542969 36.070312 13.886719 36.140625 C 12.230469 36.207031 10.617188 35.609375 9.398438 34.488281 L 2.851562 28.445312 C 1.632812 27.320312 0.910156 25.761719 0.84375 24.105469 C 0.777344 22.449219 1.371094 20.835938 2.496094 19.617188 L 17.945312 2.875 C 19.070312 1.660156 20.628906 0.9375 22.285156 0.871094 C 23.941406 0.804688 25.554688 1.398438 26.773438 2.519531 L 33.320312 8.5625 C 34.539062 9.6875 35.261719 11.25 35.328125 12.90625 C 35.394531 14.558594 34.800781 16.175781 33.675781 17.390625 Z M 33.675781 17.390625 " clip-rule="nonzero"/></clipPath><clipPath id="f52b8e39ba"><rect x="0" width="36" y="0" height="37"/></clipPath><clipPath id="e9891a7a65"><path d="M 0.601562 0.121094 L 174.121094 0.121094 L 174.121094 177.960938 L 0.601562 177.960938 Z M 0.601562 0.121094 " clip-rule="nonzero"/></clipPath><clipPath id="f7666e3444"><rect x="0" width="175" y="0" height="178"/></clipPath><clipPath id="15848e1d5d"><path d="M 94.617188 80.914062 L 146.367188 80.914062 L 146.367188 112.304688 L 94.617188 112.304688 Z M 94.617188 80.914062 " clip-rule="nonzero"/></clipPath><clipPath id="edf866c8fa"><path d="M 140.121094 112.304688 L 100.878906 112.304688 C 99.222656 112.304688 97.632812 111.648438 96.460938 110.476562 C 95.289062 109.304688 94.632812 107.714844 94.632812 106.058594 L 94.632812 87.160156 C 94.632812 85.503906 95.289062 83.914062 96.460938 82.742188 C 97.632812 81.570312 99.222656 80.914062 100.878906 80.914062 L 140.121094 80.914062 C 141.777344 80.914062 143.367188 81.570312 144.539062 82.742188 C 145.710938 83.914062 146.367188 85.503906 146.367188 87.160156 L 146.367188 106.058594 C 146.367188 107.714844 145.710938 109.304688 144.539062 110.476562 C 143.367188 111.648438 141.777344 112.304688 140.121094 112.304688 Z M 140.121094 112.304688 " clip-rule="nonzero"/></clipPath><clipPath id="0501cc09bb"><path d="M 0.617188 0.914062 L 52.367188 0.914062 L 52.367188 32.304688 L 0.617188 32.304688 Z M 0.617188 0.914062 " clip-rule="nonzero"/></clipPath><clipPath id="b53eaf8da9"><path d="M 46.121094 32.304688 L 6.878906 32.304688 C 5.222656 32.304688 3.632812 31.648438 2.460938 30.476562 C 1.289062 29.304688 0.632812 27.714844 0.632812 26.058594 L 0.632812 7.160156 C 0.632812 5.503906 1.289062 3.914062 2.460938 2.742188 C 3.632812 1.570312 5.222656 0.914062 6.878906 0.914062 L 46.121094 0.914062 C 47.777344 0.914062 49.367188 1.570312 50.539062 2.742188 C 51.710938 3.914062 52.367188 5.503906 52.367188 7.160156 L 52.367188 26.058594 C 52.367188 27.714844 51.710938 29.304688 50.539062 30.476562 C 49.367188 31.648438 47.777344 32.304688 46.121094 32.304688 Z M 46.121094 32.304688 " clip-rule="nonzero"/></clipPath><clipPath id="2e2c361a2d"><rect x="0" width="53" y="0" height="33"/></clipPath><clipPath id="b5d45bd454"><path d="M 0.921875 0.601562 L 240.199219 0.601562 L 240.199219 125.878906 L 0.921875 125.878906 Z M 0.921875 0.601562 " clip-rule="nonzero"/></clipPath><clipPath id="3dff1b4579"><rect x="0" width="241" y="0" height="126"/></clipPath><clipPath id="cfe74e852f"><path d="M 78 97 L 126 97 L 126 137 L 78 137 Z M 78 97 " clip-rule="nonzero"/></clipPath><clipPath id="1a1a60e830"><path d="M 115.558594 138.167969 L 76.464844 119.054688 L 88.058594 95.339844 L 127.152344 114.449219 Z M 115.558594 138.167969 " clip-rule="nonzero"/></clipPath><clipPath id="be99052ac2"><path d="M 109.949219 135.421875 L 82.085938 121.804688 C 80.597656 121.074219 79.460938 119.785156 78.921875 118.21875 C 78.382812 116.652344 78.492188 114.9375 79.21875 113.449219 L 85.324219 100.957031 C 86.054688 99.46875 87.34375 98.328125 88.910156 97.789062 C 90.476562 97.253906 92.191406 97.359375 93.679688 98.085938 L 121.542969 111.707031 C 123.03125 112.433594 124.167969 113.722656 124.707031 115.289062 C 125.246094 116.855469 125.136719 118.574219 124.410156 120.0625 L 118.304688 132.554688 C 117.574219 134.042969 116.285156 135.179688 114.71875 135.71875 C 113.152344 136.257812 111.4375 136.152344 109.949219 135.421875 Z M 109.949219 135.421875 " clip-rule="nonzero"/></clipPath><clipPath id="20d601c62a"><path d="M 0.359375 0.121094 L 47.398438 0.121094 L 47.398438 39.480469 L 0.359375 39.480469 Z M 0.359375 0.121094 " clip-rule="nonzero"/></clipPath><clipPath id="ebd39ef884"><path d="M 37.558594 41.167969 L -1.535156 22.054688 L 10.058594 -1.660156 L 49.152344 17.449219 Z M 37.558594 41.167969 " clip-rule="nonzero"/></clipPath><clipPath id="e15dcde182"><path d="M 31.949219 38.421875 L 4.085938 24.804688 C 2.597656 24.074219 1.460938 22.785156 0.921875 21.21875 C 0.382812 19.652344 0.492188 17.9375 1.21875 16.449219 L 7.324219 3.957031 C 8.054688 2.46875 9.34375 1.328125 10.910156 0.789062 C 12.476562 0.253906 14.191406 0.359375 15.679688 1.085938 L 43.542969 14.707031 C 45.03125 15.433594 46.167969 16.722656 46.707031 18.289062 C 47.246094 19.855469 47.136719 21.574219 46.410156 23.0625 L 40.304688 35.554688 C 39.574219 37.042969 38.285156 38.179688 36.71875 38.71875 C 35.152344 39.257812 33.4375 39.152344 31.949219 38.421875 Z M 31.949219 38.421875 " clip-rule="nonzero"/></clipPath><clipPath id="8e0006f381"><rect x="0" width="48" y="0" height="40"/></clipPath><clipPath id="6f7169cc05"><path d="M 0.839844 0.160156 L 227.640625 0.160156 L 227.640625 183.039062 L 0.839844 183.039062 Z M 0.839844 0.160156 " clip-rule="nonzero"/></clipPath><clipPath id="58d57a550f"><rect x="0" width="228" y="0" height="184"/></clipPath><clipPath id="204e765699"><path d="M 53 87 L 88 87 L 88 123 L 53 123 Z M 53 87 " clip-rule="nonzero"/></clipPath><clipPath id="8e353d6dff"><path d="M 74.757812 125.121094 L 50.832031 99.191406 L 66.5625 84.675781 L 90.488281 110.609375 Z M 74.757812 125.121094 " clip-rule="nonzero"/></clipPath><clipPath id="c6e40c7d1f"><path d="M 70.519531 120.53125 L 55.074219 103.789062 C 53.949219 102.570312 53.355469 100.957031 53.421875 99.300781 C 53.488281 97.644531 54.210938 96.085938 55.429688 94.960938 L 61.976562 88.917969 C 63.195312 87.796875 64.808594 87.203125 66.464844 87.269531 C 68.121094 87.335938 69.683594 88.054688 70.804688 89.273438 L 86.253906 106.015625 C 87.375 107.234375 87.96875 108.847656 87.902344 110.503906 C 87.835938 112.160156 87.113281 113.71875 85.898438 114.84375 L 79.347656 120.886719 C 78.128906 122.007812 76.515625 122.601562 74.859375 122.535156 C 73.207031 122.46875 71.644531 121.75 70.519531 120.53125 Z M 70.519531 120.53125 " clip-rule="nonzero"/></clipPath><clipPath id="8df4230475"><path d="M 0.160156 0.160156 L 35 0.160156 L 35 35.679688 L 0.160156 35.679688 Z M 0.160156 0.160156 " clip-rule="nonzero"/></clipPath><clipPath id="264b7e48d6"><path d="M 21.757812 38.121094 L -2.167969 12.191406 L 13.5625 -2.324219 L 37.488281 23.609375 Z M 21.757812 38.121094 " clip-rule="nonzero"/></clipPath><clipPath id="8d23110db2"><path d="M 17.519531 33.53125 L 2.074219 16.789062 C 0.949219 15.570312 0.355469 13.957031 0.421875 12.300781 C 0.488281 10.644531 1.210938 9.085938 2.429688 7.960938 L 8.976562 1.917969 C 10.195312 0.796875 11.808594 0.203125 13.464844 0.269531 C 15.121094 0.335938 16.683594 1.054688 17.804688 2.273438 L 33.253906 19.015625 C 34.375 20.234375 34.96875 21.847656 34.902344 23.503906 C 34.835938 25.160156 34.113281 26.71875 32.898438 27.84375 L 26.347656 33.886719 C 25.128906 35.007812 23.515625 35.601562 21.859375 35.535156 C 20.207031 35.46875 18.644531 34.75 17.519531 33.53125 Z M 17.519531 33.53125 " clip-rule="nonzero"/></clipPath><clipPath id="9e47b3c65f"><rect x="0" width="35" y="0" height="36"/></clipPath><clipPath id="44adeb8a0e"><path d="M 0.839844 0.519531 L 174.121094 0.519531 L 174.121094 178.359375 L 0.839844 178.359375 Z M 0.839844 0.519531 " clip-rule="nonzero"/></clipPath><clipPath id="fc725a876c"><rect x="0" width="175" y="0" height="179"/></clipPath><clipPath id="abda085de1"><path d="M 27 62 L 49 62 L 49 91 L 27 91 Z M 27 62 " clip-rule="nonzero"/></clipPath><clipPath id="73874f684b"><path d="M 35.136719 92.292969 L 25.15625 67.152344 L 40.410156 61.097656 L 50.390625 86.238281 Z M 35.136719 92.292969 " clip-rule="nonzero"/></clipPath><clipPath id="bf314f57ec"><path d="M 32.832031 86.488281 L 27.464844 72.964844 C 26.851562 71.425781 26.878906 69.707031 27.535156 68.183594 C 28.191406 66.664062 29.425781 65.464844 30.964844 64.855469 L 34.605469 63.410156 C 36.144531 62.796875 37.867188 62.824219 39.386719 63.480469 C 40.90625 64.136719 42.105469 65.371094 42.71875 66.910156 L 48.085938 80.433594 C 48.695312 81.972656 48.671875 83.691406 48.015625 85.214844 C 47.359375 86.734375 46.125 87.933594 44.585938 88.542969 L 40.945312 89.988281 C 39.40625 90.601562 37.683594 90.574219 36.164062 89.917969 C 34.644531 89.261719 33.445312 88.027344 32.832031 86.488281 Z M 32.832031 86.488281 " clip-rule="nonzero"/></clipPath><clipPath id="7f53f82850"><path d="M 0 0.71875 L 21.839844 0.71875 L 21.839844 28.800781 L 0 28.800781 Z M 0 0.71875 " clip-rule="nonzero"/></clipPath><clipPath id="51b89be552"><path d="M 8.136719 30.292969 L -1.84375 5.152344 L 13.410156 -0.902344 L 23.390625 24.238281 Z M 8.136719 30.292969 " clip-rule="nonzero"/></clipPath><clipPath id="8d82d2cce7"><path d="M 5.832031 24.488281 L 0.464844 10.964844 C -0.148438 9.425781 -0.121094 7.707031 0.535156 6.183594 C 1.191406 4.664062 2.425781 3.464844 3.964844 2.855469 L 7.605469 1.410156 C 9.144531 0.796875 10.867188 0.824219 12.386719 1.480469 C 13.90625 2.136719 15.105469 3.371094 15.71875 4.910156 L 21.085938 18.433594 C 21.695312 19.972656 21.671875 21.691406 21.015625 23.214844 C 20.359375 24.734375 19.125 25.933594 17.585938 26.542969 L 13.945312 27.988281 C 12.40625 28.601562 10.683594 28.574219 9.164062 27.917969 C 7.644531 27.261719 6.445312 26.027344 5.832031 24.488281 Z M 5.832031 24.488281 " clip-rule="nonzero"/></clipPath><clipPath id="b47d1d9421"><rect x="0" width="22" y="0" height="29"/></clipPath><clipPath id="18d3a68ccf"><path d="M 0.601562 0.078125 L 107.640625 0.078125 L 107.640625 140.480469 L 0.601562 140.480469 Z M 0.601562 0.078125 " clip-rule="nonzero"/></clipPath><clipPath id="7a8a62a156"><rect x="0" width="108" y="0" height="141"/></clipPath><clipPath id="ea1eed60a0"><path d="M 59 78 L 117 78 L 117 140 L 59 140 Z M 59 78 " clip-rule="nonzero"/></clipPath><clipPath id="0ff3953e4e"><path d="M 56.789062 120.925781 L 91.882812 75.65625 L 119.34375 96.945312 L 84.25 142.214844 Z M 56.789062 120.925781 " clip-rule="nonzero"/></clipPath><clipPath id="f3bd1060e3"><path d="M 60.613281 115.988281 L 88.046875 80.605469 C 90.160156 77.878906 94.082031 77.378906 96.808594 79.496094 L 114.398438 93.128906 C 117.125 95.242188 117.621094 99.167969 115.507812 101.894531 L 88.078125 137.277344 C 85.964844 140.003906 82.039062 140.5 79.3125 138.386719 L 61.726562 124.753906 C 59 122.636719 58.5 118.714844 60.613281 115.988281 Z M 60.613281 115.988281 " clip-rule="nonzero"/></clipPath><clipPath id="f3d66a5258"><path d="M 0 0 L 58 0 L 58 62 L 0 62 Z M 0 0 " clip-rule="nonzero"/></clipPath><clipPath id="3ead47816d"><path d="M -2.210938 42.925781 L 32.882812 -2.34375 L 60.34375 18.945312 L 25.25 64.214844 Z M -2.210938 42.925781 " clip-rule="nonzero"/></clipPath><clipPath id="5b9aacc1c0"><path d="M 1.613281 37.988281 L 29.046875 2.605469 C 31.160156 -0.121094 35.082031 -0.621094 37.808594 1.496094 L 55.398438 15.128906 C 58.125 17.242188 58.621094 21.167969 56.507812 23.894531 L 29.078125 59.277344 C 26.964844 62.003906 23.039062 62.5 20.3125 60.386719 L 2.726562 46.753906 C 0 44.636719 -0.5 40.714844 1.613281 37.988281 Z M 1.613281 37.988281 " clip-rule="nonzero"/></clipPath><clipPath id="4a80421426"><rect x="0" width="58" y="0" height="62"/></clipPath><clipPath id="cd04602227"><path d="M 258 78 L 316 78 L 316 140 L 258 140 Z M 258 78 " clip-rule="nonzero"/></clipPath><clipPath id="49c4a1896d"><path d="M 283.246094 75.675781 L 318.351562 120.9375 L 290.894531 142.234375 L 255.789062 96.972656 Z M 283.246094 75.675781 " clip-rule="nonzero"/></clipPath><clipPath id="7650e7fd06"><path d="M 287.074219 80.613281 L 314.511719 115.988281 C 316.628906 118.714844 316.132812 122.640625 313.40625 124.753906 L 295.820312 138.394531 C 293.09375 140.507812 289.171875 140.011719 287.058594 137.285156 L 259.617188 101.910156 C 257.5 99.183594 257.996094 95.261719 260.722656 93.144531 L 278.308594 79.503906 C 281.035156 77.390625 284.957031 77.886719 287.074219 80.613281 Z M 287.074219 80.613281 " clip-rule="nonzero"/></clipPath><clipPath id="2df128fc02"><path d="M 0 0 L 58 0 L 58 62 L 0 62 Z M 0 0 " clip-rule="nonzero"/></clipPath><clipPath id="9a90d656ae"><path d="M 25.246094 -2.324219 L 60.351562 42.9375 L 32.894531 64.234375 L -2.210938 18.972656 Z M 25.246094 -2.324219 " clip-rule="nonzero"/></clipPath><clipPath id="234c1581ab"><path d="M 29.074219 2.613281 L 56.511719 37.988281 C 58.628906 40.714844 58.132812 44.640625 55.40625 46.753906 L 37.820312 60.394531 C 35.09375 62.507812 31.171875 62.011719 29.058594 59.285156 L 1.617188 23.910156 C -0.5 21.183594 -0.00390625 17.261719 2.722656 15.144531 L 20.308594 1.503906 C 23.035156 -0.609375 26.957031 -0.113281 29.074219 2.613281 Z M 29.074219 2.613281 " clip-rule="nonzero"/></clipPath><clipPath id="b58e1de554"><rect x="0" width="58" y="0" height="62"/></clipPath><clipPath id="076cff1d64"><path d="M 158.867188 46.222656 L 216.148438 46.222656 L 216.148438 80.972656 L 158.867188 80.972656 Z M 158.867188 46.222656 " clip-rule="nonzero"/></clipPath><clipPath id="4cf23adf44"><path d="M 165.113281 46.222656 L 209.886719 46.222656 C 213.335938 46.222656 216.132812 49.019531 216.132812 52.46875 L 216.132812 74.726562 C 216.132812 78.175781 213.335938 80.972656 209.886719 80.972656 L 165.113281 80.972656 C 161.664062 80.972656 158.867188 78.175781 158.867188 74.726562 L 158.867188 52.46875 C 158.867188 49.019531 161.664062 46.222656 165.113281 46.222656 Z M 165.113281 46.222656 " clip-rule="nonzero"/></clipPath><clipPath id="1c8bfa7fec"><path d="M 0.867188 0.222656 L 58.148438 0.222656 L 58.148438 34.972656 L 0.867188 34.972656 Z M 0.867188 0.222656 " clip-rule="nonzero"/></clipPath><clipPath id="5a038a660d"><path d="M 7.113281 0.222656 L 51.886719 0.222656 C 55.335938 0.222656 58.132812 3.019531 58.132812 6.46875 L 58.132812 28.726562 C 58.132812 32.175781 55.335938 34.972656 51.886719 34.972656 L 7.113281 34.972656 C 3.664062 34.972656 0.867188 32.175781 0.867188 28.726562 L 0.867188 6.46875 C 0.867188 3.019531 3.664062 0.222656 7.113281 0.222656 Z M 7.113281 0.222656 " clip-rule="nonzero"/></clipPath><clipPath id="5c421a4dc3"><rect x="0" width="59" y="0" height="35"/></clipPath><clipPath id="9333cc2f07"><path d="M 77.800781 77.800781 L 297.199219 77.800781 L 297.199219 297.199219 L 77.800781 297.199219 Z M 77.800781 77.800781 " clip-rule="nonzero"/></clipPath><clipPath id="d89035eced"><path d="M 187.5 77.800781 C 126.914062 77.800781 77.800781 126.914062 77.800781 187.5 C 77.800781 248.085938 126.914062 297.199219 187.5 297.199219 C 248.085938 297.199219 297.199219 248.085938 297.199219 187.5 C 297.199219 126.914062 248.085938 77.800781 187.5 77.800781 Z M 187.5 77.800781 " clip-rule="nonzero"/></clipPath><clipPath id="e33c2860d1"><path d="M 0.800781 0.800781 L 220.199219 0.800781 L 220.199219 220.199219 L 0.800781 220.199219 Z M 0.800781 0.800781 " clip-rule="nonzero"/></clipPath><clipPath id="db77247c94"><path d="M 110.5 0.800781 C 49.914062 0.800781 0.800781 49.914062 0.800781 110.5 C 0.800781 171.085938 49.914062 220.199219 110.5 220.199219 C 171.085938 220.199219 220.199219 171.085938 220.199219 110.5 C 220.199219 49.914062 171.085938 0.800781 110.5 0.800781 Z M 110.5 0.800781 " clip-rule="nonzero"/></clipPath><clipPath id="ccc592e011"><rect x="0" width="221" y="0" height="221"/></clipPath><clipPath id="9ff60c5a4b"><path d="M 77.800781 77.800781 L 297.199219 77.800781 L 297.199219 297.199219 L 77.800781 297.199219 Z M 77.800781 77.800781 " clip-rule="nonzero"/></clipPath><clipPath id="146d6265f9"><path d="M 187.5 77.800781 C 126.914062 77.800781 77.800781 126.914062 77.800781 187.5 C 77.800781 248.082031 126.914062 297.199219 187.5 297.199219 C 248.082031 297.199219 297.199219 248.082031 297.199219 187.5 C 297.199219 126.914062 248.082031 77.800781 187.5 77.800781 Z M 187.5 77.800781 " clip-rule="nonzero"/></clipPath><clipPath id="280baddbc9"><path d="M 187.496094 111.46875 L 267.714844 111.46875 L 267.714844 269 L 187.496094 269 Z M 187.496094 111.46875 " clip-rule="nonzero"/></clipPath><clipPath id="93d0a50940"><path d="M 187.496094 268.820312 C 231.1875 268.820312 267.714844 233 267.714844 190.144531 C 267.714844 147.292969 231.1875 111.46875 187.496094 111.46875 Z M 187.496094 268.820312 " clip-rule="nonzero"/></clipPath><clipPath id="e9309ece20"><path d="M 0.496094 0.46875 L 80.714844 0.46875 L 80.714844 158 L 0.496094 158 Z M 0.496094 0.46875 " clip-rule="nonzero"/></clipPath><clipPath id="aef08496c4"><path d="M 0.496094 157.820312 C 44.1875 157.820312 80.714844 122 80.714844 79.144531 C 80.714844 36.292969 44.1875 0.46875 0.496094 0.46875 Z M 0.496094 157.820312 " clip-rule="nonzero"/></clipPath><clipPath id="55508c122d"><rect x="0" width="81" y="0" height="158"/></clipPath></defs><rect x="-37.5" width="450" fill="#ffffff" y="-37.499999" height="449.999989" fill-opacity="1"/><rect x="-37.5" width="450" fill="#d9d9d9" y="-37.499999" height="449.999989" fill-opacity="1"/><g transform="matrix(1, 0, 0, 1, 117, 185)"><g clip-path="url(#0aab25f8a7)"><g clip-path="url(#c01fbb2f54)"><g clip-path="url(#a63a1250fe)"><g clip-path="url(#75e018a328)"><g transform="matrix(1, 0, 0, 1, 102, 97)"><g clip-path="url(#5d50f8b091)"><g clip-path="url(#ba34e9b7d3)"><g clip-path="url(#c59612c833)"><g clip-path="url(#a13fab83b4)"><path fill="#d84700" d="M 49.457031 22.496094 L 10.378906 41.640625 L -1.238281 17.933594 L 37.84375 -1.210938 Z M 49.457031 22.496094 " fill-opacity="1" fill-rule="nonzero"/></g></g></g></g></g></g></g></g><g clip-path="url(#733db2a0bc)"><path stroke-linecap="butt" transform="matrix(-0.515584, 0.242546, -0.242546, -0.515584, 186.293423, 83.971194)" fill="none" stroke-linejoin="miter" d="M 10.860845 66.974945 C 84.383049 -0.991558 157.910052 -0.988321 231.43857 66.975534 " stroke="#d9d9d9" stroke-width="32" stroke-opacity="1" stroke-miterlimit="4"/></g></g></g><g transform="matrix(1, 0, 0, 1, 231, 158)"><g clip-path="url(#d16e39adbf)"><g clip-path="url(#ea63f85141)"><g clip-path="url(#033cfb2aee)"><g clip-path="url(#e60bda9404)"><g transform="matrix(1, 0, 0, 1, 59, 63)"><g clip-path="url(#0c18f43cd8)"><g clip-path="url(#63129fa3b0)"><g clip-path="url(#007d10d6a9)"><g clip-path="url(#7b0b6f91f7)"><path fill="#d84700" d="M 24.140625 5.117188 L 14.140625 30.25 L -1.109375 24.183594 L 8.894531 -0.953125 Z M 24.140625 5.117188 " fill-opacity="1" fill-rule="nonzero"/></g></g></g></g></g></g></g></g><g clip-path="url(#de80916a70)"><path stroke-linecap="butt" transform="matrix(-0.13615, 0.326978, -0.326978, -0.13615, 84.350257, 37.210339)" fill="none" stroke-linejoin="miter" d="M 10.864484 66.972117 C 84.387367 -0.986846 157.914533 -0.995747 231.434098 66.974253 " stroke="#d9d9d9" stroke-width="32" stroke-opacity="1" stroke-miterlimit="4"/></g></g></g><g transform="matrix(1, 0, 0, 1, 177, 165)"><g clip-path="url(#f7666e3444)"><g clip-path="url(#a4a65657d0)"><g clip-path="url(#9671ade1dc)"><g clip-path="url(#62481775a7)"><g transform="matrix(1, 0, 0, 1, 86, 86)"><g clip-path="url(#f52b8e39ba)"><g clip-path="url(#0712c40e1d)"><g clip-path="url(#912e091bbd)"><g clip-path="url(#ff098e8c8e)"><path fill="#d84700" d="M 37.910156 12.800781 L 13.984375 38.730469 L -1.746094 24.214844 L 22.179688 -1.714844 Z M 37.910156 12.800781 " fill-opacity="1" fill-rule="nonzero"/></g></g></g></g></g></g></g></g><g clip-path="url(#e9891a7a65)"><path stroke-linecap="butt" transform="matrix(-0.318633, 0.334524, -0.334524, -0.318633, 139.830072, 61.73146)" fill="none" stroke-linejoin="miter" d="M 10.859406 66.975949 C 84.387492 -0.992496 157.912425 -0.985891 231.434787 66.971857 " stroke="#d9d9d9" stroke-width="32" stroke-opacity="1" stroke-miterlimit="4"/></g></g></g><g transform="matrix(1, 0, 0, 1, 67, 219)"><g clip-path="url(#3dff1b4579)"><g clip-path="url(#15848e1d5d)"><g clip-path="url(#edf866c8fa)"><g transform="matrix(1, 0, 0, 1, 94, 80)"><g clip-path="url(#2e2c361a2d)"><g clip-path="url(#0501cc09bb)"><g clip-path="url(#b53eaf8da9)"><path fill="#d84700" d="M 52.367188 32.304688 L 0.617188 32.304688 L 0.617188 0.914062 L 52.367188 0.914062 Z M 52.367188 32.304688 " fill-opacity="1" fill-rule="nonzero"/></g></g></g></g></g></g><g clip-path="url(#b5d45bd454)"><path stroke-linecap="butt" transform="matrix(-0.677498, -0.0107176, 0.0107176, -0.677498, 202.156296, 92.593691)" fill="none" stroke-linejoin="miter" d="M 10.861168 66.969638 C 84.388459 -0.989116 157.912562 -0.993315 231.439514 66.974245 " stroke="#d9d9d9" stroke-width="32" stroke-opacity="1" stroke-miterlimit="4"/></g></g></g><g transform="matrix(1, 0, 0, 1, 27, 182)"><g clip-path="url(#58d57a550f)"><g clip-path="url(#cfe74e852f)"><g clip-path="url(#1a1a60e830)"><g clip-path="url(#be99052ac2)"><g transform="matrix(1, 0, 0, 1, 78, 97)"><g clip-path="url(#8e0006f381)"><g clip-path="url(#20d601c62a)"><g clip-path="url(#ebd39ef884)"><g clip-path="url(#e15dcde182)"><path fill="#d84700" d="M 37.558594 41.167969 L -1.535156 22.054688 L 10.058594 -1.660156 L 49.152344 17.449219 Z M 37.558594 41.167969 " fill-opacity="1" fill-rule="nonzero"/></g></g></g></g></g></g></g></g><g clip-path="url(#6f7169cc05)"><path stroke-linecap="butt" transform="matrix(-0.507872, -0.258306, 0.258306, -0.507872, 164.986573, 143.877703)" fill="none" stroke-linejoin="miter" d="M 10.861828 66.972455 C 84.384603 -0.987186 157.913652 -0.988751 231.436753 66.973975 " stroke="#d9d9d9" stroke-width="32" stroke-opacity="1" stroke-miterlimit="4"/></g></g></g><g transform="matrix(1, 0, 0, 1, 21, 161)"><g clip-path="url(#fc725a876c)"><g clip-path="url(#204e765699)"><g clip-path="url(#8e353d6dff)"><g clip-path="url(#c6e40c7d1f)"><g transform="matrix(1, 0, 0, 1, 53, 87)"><g clip-path="url(#9e47b3c65f)"><g clip-path="url(#8df4230475)"><g clip-path="url(#264b7e48d6)"><g clip-path="url(#8d23110db2)"><path fill="#d84700" d="M 21.757812 38.121094 L -2.167969 12.191406 L 13.5625 -2.324219 L 37.488281 23.609375 Z M 21.757812 38.121094 " fill-opacity="1" fill-rule="nonzero"/></g></g></g></g></g></g></g></g><g clip-path="url(#44adeb8a0e)"><path stroke-linecap="butt" transform="matrix(-0.307867, -0.344458, 0.344458, -0.307867, 110.429057, 143.964512)" fill="none" stroke-linejoin="miter" d="M 10.857249 66.974235 C 84.382544 -0.99011 157.911688 -0.988644 231.438377 66.973 " stroke="#d9d9d9" stroke-width="32" stroke-opacity="1" stroke-miterlimit="4"/></g></g></g><g transform="matrix(1, 0, 0, 1, 33, 154)"><g clip-path="url(#7a8a62a156)"><g clip-path="url(#abda085de1)"><g clip-path="url(#73874f684b)"><g clip-path="url(#bf314f57ec)"><g transform="matrix(1, 0, 0, 1, 27, 62)"><g clip-path="url(#b47d1d9421)"><g clip-path="url(#7f53f82850)"><g clip-path="url(#51b89be552)"><g clip-path="url(#8d82d2cce7)"><path fill="#d84700" d="M 8.136719 30.292969 L -1.84375 5.152344 L 13.410156 -0.902344 L 23.390625 24.238281 Z M 8.136719 30.292969 " fill-opacity="1" fill-rule="nonzero"/></g></g></g></g></g></g></g></g><g clip-path="url(#18d3a68ccf)"><path stroke-linecap="butt" transform="matrix(-0.125469, -0.331223, 0.331223, -0.125469, 55.476159, 115.597092)" fill="none" stroke-linejoin="miter" d="M 10.857982 66.973061 C 84.390894 -0.993764 157.909127 -0.989011 231.441123 66.974505 " stroke="#d9d9d9" stroke-width="32" stroke-opacity="1" stroke-miterlimit="4"/></g></g></g><g clip-path="url(#ea1eed60a0)"><g clip-path="url(#0ff3953e4e)"><g clip-path="url(#f3bd1060e3)"><g transform="matrix(1, 0, 0, 1, 59, 78)"><g clip-path="url(#4a80421426)"><g clip-path="url(#f3d66a5258)"><g clip-path="url(#3ead47816d)"><g clip-path="url(#5b9aacc1c0)"><path fill="#000000" d="M -2.210938 42.925781 L 32.882812 -2.34375 L 60.34375 18.945312 L 25.25 64.214844 Z M -2.210938 42.925781 " fill-opacity="1" fill-rule="nonzero"/></g></g></g></g></g></g></g></g><path stroke-linecap="butt" transform="matrix(0.468835, -0.585401, 0.585401, 0.468835, 36.197921, 183.096696)" fill="none" stroke-linejoin="miter" d="M 10.862357 66.972119 C 84.383018 -0.99064 157.910779 -0.990145 231.43832 66.972792 " stroke="#d9d9d9" stroke-width="32" stroke-opacity="1" stroke-miterlimit="4"/><g clip-path="url(#cd04602227)"><g clip-path="url(#49c4a1896d)"><g clip-path="url(#7650e7fd06)"><g transform="matrix(1, 0, 0, 1, 258, 78)"><g clip-path="url(#b58e1de554)"><g clip-path="url(#2df128fc02)"><g clip-path="url(#9a90d656ae)"><g clip-path="url(#234c1581ab)"><path fill="#000000" d="M 25.246094 -2.324219 L 60.351562 42.9375 L 32.894531 64.234375 L -2.210938 18.972656 Z M 25.246094 -2.324219 " fill-opacity="1" fill-rule="nonzero"/></g></g></g></g></g></g></g></g><path stroke-linecap="butt" transform="matrix(0.450249, 0.599813, -0.599813, 0.450249, 228.15579, 40.257079)" fill="none" stroke-linejoin="miter" d="M 10.860838 66.972326 C 84.38595 -0.992983 157.908877 -0.989532 231.438997 66.970182 " stroke="#d9d9d9" stroke-width="32" stroke-opacity="1" stroke-miterlimit="4"/><g clip-path="url(#076cff1d64)"><g clip-path="url(#4cf23adf44)"><g transform="matrix(1, 0, 0, 1, 158, 46)"><g clip-path="url(#5c421a4dc3)"><g clip-path="url(#1c8bfa7fec)"><g clip-path="url(#5a038a660d)"><path fill="#000000" d="M 0.867188 0.222656 L 58.148438 0.222656 L 58.148438 34.972656 L 0.867188 34.972656 Z M 0.867188 0.222656 " fill-opacity="1" fill-rule="nonzero"/></g></g></g></g></g></g><path stroke-linecap="butt" transform="matrix(0.749906, 0.011863, -0.011863, 0.749906, 97.116656, 68.04283)" fill="none" stroke-linejoin="miter" d="M 10.858268 66.972236 C 84.386224 -0.990957 157.911029 -0.992468 231.437974 66.972829 " stroke="#d9d9d9" stroke-width="32" stroke-opacity="1" stroke-miterlimit="4"/><g clip-path="url(#9333cc2f07)"><g clip-path="url(#d89035eced)"><g transform="matrix(1, 0, 0, 1, 77, 77)"><g clip-path="url(#ccc592e011)"><g clip-path="url(#e33c2860d1)"><g clip-path="url(#db77247c94)"><path fill="#ffffff" d="M 0.800781 0.800781 L 220.199219 0.800781 L 220.199219 220.199219 L 0.800781 220.199219 Z M 0.800781 0.800781 " fill-opacity="1" fill-rule="nonzero"/></g></g></g></g></g></g><g clip-path="url(#9ff60c5a4b)"><g clip-path="url(#146d6265f9)"><path stroke-linecap="butt" transform="matrix(0.75, 0, 0, 0.75, 77.799352, 77.799348)" fill="none" stroke-linejoin="miter" d="M 146.26754 0.00191141 C 65.486285 0.00191141 0.00190541 65.486291 0.00190541 146.267546 C 0.00190541 227.043593 65.486285 292.533181 146.26754 292.533181 C 227.043587 292.533181 292.533175 227.043593 292.533175 146.267546 C 292.533175 65.486291 227.043587 0.00191141 146.26754 0.00191141 Z M 146.26754 0.00191141 " stroke="#000000" stroke-width="50" stroke-opacity="1" stroke-miterlimit="4"/></g></g><g clip-path="url(#280baddbc9)"><g clip-path="url(#93d0a50940)"><g transform="matrix(1, 0, 0, 1, 187, 111)"><g clip-path="url(#55508c122d)"><g clip-path="url(#e9309ece20)"><g clip-path="url(#aef08496c4)"><path fill="#d84700" d="M 80.714844 0.46875 L 80.714844 157.773438 L 0.496094 157.773438 L 0.496094 0.46875 Z M 80.714844 0.46875 " fill-opacity="1" fill-rule="nonzero"/></g></g></g></g></g></g></svg>