<svg xmlns="http://www.w3.org/2000/svg" xmlns:xlink="http://www.w3.org/1999/xlink" width="500" zoomAndPan="magnify" viewBox="0 0 375 374.999991" height="500" preserveAspectRatio="xMidYMid meet" version="1.0"><defs><g/><clipPath id="334bd733b9"><path d="M 121.910156 156.5 L 240.667969 156.5 L 240.667969 225.820312 L 121.910156 225.820312 Z M 121.910156 156.5 " clip-rule="nonzero"/></clipPath><clipPath id="52d21829bf"><path d="M 0.910156 0.5 L 119.667969 0.5 L 119.667969 69.820312 L 0.910156 69.820312 Z M 0.910156 0.5 " clip-rule="nonzero"/></clipPath><clipPath id="527b293bc7"><rect x="0" width="120" y="0" height="70"/></clipPath><clipPath id="6e2e867278"><path d="M 240.667969 156.5 L 360.660156 156.5 L 360.660156 225.820312 L 240.667969 225.820312 Z M 240.667969 156.5 " clip-rule="nonzero"/></clipPath><clipPath id="ea9762c830"><path d="M 0.667969 0.5 L 120.660156 0.5 L 120.660156 69.820312 L 0.667969 69.820312 Z M 0.667969 0.5 " clip-rule="nonzero"/></clipPath><clipPath id="1aafc23ff6"><rect x="0" width="121" y="0" height="70"/></clipPath><clipPath id="1a1a0f65c2"><path d="M 80 223 L 96 223 L 96 236 L 80 236 Z M 80 223 " clip-rule="nonzero"/></clipPath><clipPath id="8e26d7b3eb"><path d="M 97.4375 229.984375 L 83.414062 236.851562 L 79.246094 228.34375 L 93.269531 221.476562 Z M 97.4375 229.984375 " clip-rule="nonzero"/></clipPath><clipPath id="a2eec4a012"><path d="M 93.183594 232.066406 L 87.667969 234.765625 C 86.542969 235.320312 85.238281 235.402344 84.050781 234.996094 C 82.863281 234.585938 81.886719 233.726562 81.332031 232.597656 C 80.78125 231.46875 80.699219 230.167969 81.105469 228.980469 C 81.511719 227.789062 82.375 226.8125 83.503906 226.257812 L 89.015625 223.558594 C 90.144531 223.007812 91.445312 222.925781 92.632812 223.332031 C 93.820312 223.738281 94.800781 224.601562 95.351562 225.730469 C 95.90625 226.855469 95.988281 228.160156 95.582031 229.347656 C 95.171875 230.535156 94.3125 231.515625 93.183594 232.066406 Z M 93.183594 232.066406 " clip-rule="nonzero"/></clipPath><clipPath id="da3762c8cd"><path d="M 0.640625 0 L 16 0 L 16 12.441406 L 0.640625 12.441406 Z M 0.640625 0 " clip-rule="nonzero"/></clipPath><clipPath id="b599827ca1"><path d="M 17.4375 6.984375 L 3.414062 13.851562 L -0.753906 5.34375 L 13.269531 -1.523438 Z M 17.4375 6.984375 " clip-rule="nonzero"/></clipPath><clipPath id="07463f2e71"><path d="M 13.183594 9.066406 L 7.667969 11.765625 C 6.542969 12.320312 5.238281 12.402344 4.050781 11.996094 C 2.863281 11.585938 1.886719 10.726562 1.332031 9.597656 C 0.78125 8.46875 0.699219 7.167969 1.105469 5.980469 C 1.511719 4.789062 2.375 3.8125 3.503906 3.257812 L 9.015625 0.558594 C 10.144531 0.0078125 11.445312 -0.0742188 12.632812 0.332031 C 13.820312 0.738281 14.800781 1.601562 15.351562 2.730469 C 15.90625 3.855469 15.988281 5.160156 15.582031 6.347656 C 15.171875 7.535156 14.3125 8.515625 13.183594 9.066406 Z M 13.183594 9.066406 " clip-rule="nonzero"/></clipPath><clipPath id="c9929f001e"><rect x="0" width="16" y="0" height="13"/></clipPath><clipPath id="614c15c146"><path d="M 105 200 L 113 200 L 113 210 L 105 210 Z M 105 200 " clip-rule="nonzero"/></clipPath><clipPath id="1b4ec988c7"><path d="M 113.832031 201.851562 L 110.242188 210.871094 L 104.769531 208.695312 L 108.359375 199.675781 Z M 113.832031 201.851562 " clip-rule="nonzero"/></clipPath><clipPath id="6b321f0a25"><path d="M 112.742188 204.585938 L 111.332031 208.132812 C 111.042969 208.859375 110.476562 209.441406 109.757812 209.75 C 109.042969 210.058594 108.230469 210.070312 107.507812 209.78125 C 106.78125 209.492188 106.199219 208.925781 105.890625 208.207031 C 105.582031 207.492188 105.570312 206.679688 105.859375 205.957031 L 107.269531 202.410156 C 107.558594 201.683594 108.125 201.101562 108.839844 200.792969 C 109.558594 200.484375 110.367188 200.472656 111.09375 200.761719 C 111.820312 201.050781 112.402344 201.617188 112.710938 202.332031 C 113.019531 203.050781 113.03125 203.863281 112.742188 204.585938 Z M 112.742188 204.585938 " clip-rule="nonzero"/></clipPath><clipPath id="0d6a9655af"><path d="M 0.359375 0.398438 L 8 0.398438 L 8 10 L 0.359375 10 Z M 0.359375 0.398438 " clip-rule="nonzero"/></clipPath><clipPath id="096889d0b6"><path d="M 8.832031 1.851562 L 5.242188 10.871094 L -0.230469 8.695312 L 3.359375 -0.324219 Z M 8.832031 1.851562 " clip-rule="nonzero"/></clipPath><clipPath id="e6974f1138"><path d="M 7.742188 4.585938 L 6.332031 8.132812 C 6.042969 8.859375 5.476562 9.441406 4.757812 9.75 C 4.042969 10.058594 3.230469 10.070312 2.507812 9.78125 C 1.78125 9.492188 1.199219 8.925781 0.890625 8.207031 C 0.582031 7.492188 0.570312 6.679688 0.859375 5.957031 L 2.269531 2.410156 C 2.558594 1.683594 3.125 1.101562 3.839844 0.792969 C 4.558594 0.484375 5.367188 0.472656 6.09375 0.761719 C 6.820312 1.050781 7.402344 1.617188 7.710938 2.332031 C 8.019531 3.050781 8.03125 3.863281 7.742188 4.585938 Z M 7.742188 4.585938 " clip-rule="nonzero"/></clipPath><clipPath id="d5577ce1ce"><rect x="0" width="8" y="0" height="10"/></clipPath><clipPath id="73db35146f"><path d="M 96 211 L 108 211 L 108 224 L 96 224 Z M 96 211 " clip-rule="nonzero"/></clipPath><clipPath id="d55140394f"><path d="M 109.082031 215.375 L 100.496094 224.679688 L 94.851562 219.472656 L 103.4375 210.164062 Z M 109.082031 215.375 " clip-rule="nonzero"/></clipPath><clipPath id="57c95a15d0"><path d="M 106.476562 218.199219 L 103.101562 221.855469 C 102.410156 222.605469 101.453125 223.046875 100.433594 223.089844 C 99.417969 223.128906 98.425781 222.765625 97.675781 222.074219 C 96.925781 221.382812 96.484375 220.421875 96.441406 219.40625 C 96.402344 218.386719 96.765625 217.394531 97.457031 216.644531 L 100.832031 212.988281 C 101.523438 212.238281 102.484375 211.796875 103.5 211.753906 C 104.519531 211.714844 105.511719 212.078125 106.261719 212.769531 C 107.007812 213.460938 107.453125 214.421875 107.492188 215.4375 C 107.535156 216.457031 107.167969 217.449219 106.476562 218.199219 Z M 106.476562 218.199219 " clip-rule="nonzero"/></clipPath><clipPath id="9d777b771d"><path d="M 0.238281 0.679688 L 11.761719 0.679688 L 11.761719 12.199219 L 0.238281 12.199219 Z M 0.238281 0.679688 " clip-rule="nonzero"/></clipPath><clipPath id="f7832e7f7a"><path d="M 13.082031 4.375 L 4.496094 13.679688 L -1.148438 8.472656 L 7.4375 -0.835938 Z M 13.082031 4.375 " clip-rule="nonzero"/></clipPath><clipPath id="b06484dfa5"><path d="M 10.476562 7.199219 L 7.101562 10.855469 C 6.410156 11.605469 5.453125 12.046875 4.433594 12.089844 C 3.417969 12.128906 2.425781 11.765625 1.675781 11.074219 C 0.925781 10.382812 0.484375 9.421875 0.441406 8.40625 C 0.402344 7.386719 0.765625 6.394531 1.457031 5.644531 L 4.832031 1.988281 C 5.523438 1.238281 6.484375 0.796875 7.5 0.753906 C 8.519531 0.714844 9.511719 1.078125 10.261719 1.769531 C 11.007812 2.460938 11.453125 3.421875 11.492188 4.4375 C 11.535156 5.457031 11.167969 6.449219 10.476562 7.199219 Z M 10.476562 7.199219 " clip-rule="nonzero"/></clipPath><clipPath id="02b3921172"><rect x="0" width="12" y="0" height="13"/></clipPath><clipPath id="43e4f7cfd3"><path d="M 59.09375 228.335938 L 77.667969 228.335938 L 77.667969 239.601562 L 59.09375 239.601562 Z M 59.09375 228.335938 " clip-rule="nonzero"/></clipPath><clipPath id="44089740ee"><path d="M 72.035156 239.601562 L 64.734375 239.601562 C 63.238281 239.601562 61.804688 239.011719 60.75 237.953125 C 59.695312 236.898438 59.101562 235.464844 59.101562 233.96875 C 59.101562 232.476562 59.695312 231.042969 60.75 229.988281 C 61.804688 228.929688 63.238281 228.335938 64.734375 228.335938 L 72.035156 228.335938 C 73.527344 228.335938 74.960938 228.929688 76.015625 229.988281 C 77.074219 231.042969 77.667969 232.476562 77.667969 233.96875 C 77.667969 235.464844 77.074219 236.898438 76.015625 237.953125 C 74.960938 239.011719 73.527344 239.601562 72.035156 239.601562 Z M 72.035156 239.601562 " clip-rule="nonzero"/></clipPath><clipPath id="8f2b05217f"><path d="M 0.09375 0.335938 L 18.667969 0.335938 L 18.667969 11.601562 L 0.09375 11.601562 Z M 0.09375 0.335938 " clip-rule="nonzero"/></clipPath><clipPath id="a9b425e244"><path d="M 13.035156 11.601562 L 5.734375 11.601562 C 4.238281 11.601562 2.804688 11.011719 1.75 9.953125 C 0.695312 8.898438 0.101562 7.464844 0.101562 5.96875 C 0.101562 4.476562 0.695312 3.042969 1.75 1.988281 C 2.804688 0.929688 4.238281 0.335938 5.734375 0.335938 L 13.035156 0.335938 C 14.527344 0.335938 15.960938 0.929688 17.015625 1.988281 C 18.074219 3.042969 18.667969 4.476562 18.667969 5.96875 C 18.667969 7.464844 18.074219 8.898438 17.015625 9.953125 C 15.960938 11.011719 14.527344 11.601562 13.035156 11.601562 Z M 13.035156 11.601562 " clip-rule="nonzero"/></clipPath><clipPath id="c035f389df"><rect x="0" width="19" y="0" height="12"/></clipPath><clipPath id="f8633b0ab3"><path d="M 39 221 L 55 221 L 55 235 L 39 235 Z M 39 221 " clip-rule="nonzero"/></clipPath><clipPath id="1f1fee020a"><path d="M 52.257812 235.605469 L 38.226562 228.746094 L 42.386719 220.234375 L 56.417969 227.09375 Z M 52.257812 235.605469 " clip-rule="nonzero"/></clipPath><clipPath id="e5f3677b55"><path d="M 48 233.523438 L 42.484375 230.828125 C 41.355469 230.277344 40.492188 229.300781 40.085938 228.109375 C 39.679688 226.921875 39.757812 225.621094 40.3125 224.492188 C 40.863281 223.363281 41.839844 222.5 43.027344 222.09375 C 44.214844 221.683594 45.519531 221.765625 46.648438 222.316406 L 52.160156 225.011719 C 53.289062 225.566406 54.152344 226.542969 54.5625 227.730469 C 54.96875 228.917969 54.886719 230.21875 54.335938 231.347656 C 53.785156 232.476562 52.808594 233.339844 51.621094 233.75 C 50.429688 234.15625 49.128906 234.074219 48 233.523438 Z M 48 233.523438 " clip-rule="nonzero"/></clipPath><clipPath id="118d66007f"><path d="M 0.601562 0.519531 L 16 0.519531 L 16 13.238281 L 0.601562 13.238281 Z M 0.601562 0.519531 " clip-rule="nonzero"/></clipPath><clipPath id="fd9a00edec"><path d="M 13.257812 14.605469 L -0.773438 7.746094 L 3.386719 -0.765625 L 17.417969 6.09375 Z M 13.257812 14.605469 " clip-rule="nonzero"/></clipPath><clipPath id="6bc8855823"><path d="M 9 12.523438 L 3.484375 9.828125 C 2.355469 9.277344 1.492188 8.300781 1.085938 7.109375 C 0.679688 5.921875 0.757812 4.621094 1.3125 3.492188 C 1.863281 2.363281 2.839844 1.5 4.027344 1.09375 C 5.214844 0.683594 6.519531 0.765625 7.648438 1.316406 L 13.160156 4.011719 C 14.289062 4.566406 15.152344 5.542969 15.5625 6.730469 C 15.96875 7.917969 15.886719 9.21875 15.335938 10.347656 C 14.785156 11.476562 13.808594 12.339844 12.621094 12.75 C 11.429688 13.15625 10.128906 13.074219 9 12.523438 Z M 9 12.523438 " clip-rule="nonzero"/></clipPath><clipPath id="29ba2ce8c6"><rect x="0" width="16" y="0" height="14"/></clipPath><clipPath id="614eab54d1"><path d="M 28 210 L 40 210 L 40 222 L 28 222 Z M 28 210 " clip-rule="nonzero"/></clipPath><clipPath id="36574cd0ef"><path d="M 35.464844 223.382812 L 26.878906 214.078125 L 32.523438 208.867188 L 41.109375 218.175781 Z M 35.464844 223.382812 " clip-rule="nonzero"/></clipPath><clipPath id="7ae2eccf61"><path d="M 32.859375 220.5625 L 29.484375 216.902344 C 28.792969 216.152344 28.429688 215.160156 28.46875 214.144531 C 28.511719 213.125 28.953125 212.167969 29.703125 211.476562 C 30.449219 210.785156 31.441406 210.417969 32.460938 210.460938 C 33.480469 210.5 34.4375 210.945312 35.128906 211.695312 L 38.503906 215.351562 C 39.195312 216.101562 39.558594 217.09375 39.519531 218.109375 C 39.476562 219.128906 39.035156 220.089844 38.285156 220.777344 C 37.539062 221.46875 36.546875 221.835938 35.527344 221.792969 C 34.507812 221.753906 33.550781 221.308594 32.859375 220.5625 Z M 32.859375 220.5625 " clip-rule="nonzero"/></clipPath><clipPath id="ba12f9780c"><path d="M 0.320312 0.238281 L 11.601562 0.238281 L 11.601562 12 L 0.320312 12 Z M 0.320312 0.238281 " clip-rule="nonzero"/></clipPath><clipPath id="ec88bf15c1"><path d="M 7.464844 13.382812 L -1.121094 4.078125 L 4.523438 -1.132812 L 13.109375 8.175781 Z M 7.464844 13.382812 " clip-rule="nonzero"/></clipPath><clipPath id="a6afc79226"><path d="M 4.859375 10.5625 L 1.484375 6.902344 C 0.792969 6.152344 0.429688 5.160156 0.46875 4.144531 C 0.511719 3.125 0.953125 2.167969 1.703125 1.476562 C 2.449219 0.785156 3.441406 0.417969 4.460938 0.460938 C 5.480469 0.5 6.4375 0.945312 7.128906 1.695312 L 10.503906 5.351562 C 11.195312 6.101562 11.558594 7.09375 11.519531 8.109375 C 11.476562 9.128906 11.035156 10.089844 10.285156 10.777344 C 9.539062 11.46875 8.546875 11.835938 7.527344 11.792969 C 6.507812 11.753906 5.550781 11.308594 4.859375 10.5625 Z M 4.859375 10.5625 " clip-rule="nonzero"/></clipPath><clipPath id="2bc6dbd9ba"><rect x="0" width="12" y="0" height="12"/></clipPath><clipPath id="f2ee0d61c5"><path d="M 22 198 L 31 198 L 31 209 L 22 209 Z M 22 198 " clip-rule="nonzero"/></clipPath><clipPath id="fe970db6d2"><path d="M 25.554688 209.089844 L 21.972656 200.070312 L 27.445312 197.894531 L 31.027344 206.917969 Z M 25.554688 209.089844 " clip-rule="nonzero"/></clipPath><clipPath id="b2e855bda8"><path d="M 24.464844 206.355469 L 23.058594 202.808594 C 22.769531 202.082031 22.78125 201.273438 23.09375 200.554688 C 23.402344 199.835938 23.984375 199.273438 24.707031 198.984375 C 25.433594 198.695312 26.246094 198.707031 26.960938 199.019531 C 27.679688 199.328125 28.242188 199.910156 28.53125 200.636719 L 29.941406 204.179688 C 30.226562 204.90625 30.214844 205.71875 29.90625 206.433594 C 29.597656 207.152344 29.015625 207.714844 28.289062 208.003906 C 27.5625 208.292969 26.753906 208.28125 26.035156 207.972656 C 25.320312 207.660156 24.753906 207.082031 24.464844 206.355469 Z M 24.464844 206.355469 " clip-rule="nonzero"/></clipPath><clipPath id="f1faad9aaf"><path d="M 0.558594 0.480469 L 8.238281 0.480469 L 8.238281 10.320312 L 0.558594 10.320312 Z M 0.558594 0.480469 " clip-rule="nonzero"/></clipPath><clipPath id="549424de45"><path d="M 3.554688 11.089844 L -0.0273438 2.070312 L 5.445312 -0.105469 L 9.027344 8.917969 Z M 3.554688 11.089844 " clip-rule="nonzero"/></clipPath><clipPath id="7f28300206"><path d="M 2.464844 8.355469 L 1.058594 4.808594 C 0.769531 4.082031 0.78125 3.273438 1.09375 2.554688 C 1.402344 1.835938 1.984375 1.273438 2.707031 0.984375 C 3.433594 0.695312 4.246094 0.707031 4.960938 1.019531 C 5.679688 1.328125 6.242188 1.910156 6.53125 2.636719 L 7.941406 6.179688 C 8.226562 6.90625 8.214844 7.71875 7.90625 8.433594 C 7.597656 9.152344 7.015625 9.714844 6.289062 10.003906 C 5.5625 10.292969 4.753906 10.28125 4.035156 9.972656 C 3.320312 9.660156 2.753906 9.082031 2.464844 8.355469 Z M 2.464844 8.355469 " clip-rule="nonzero"/></clipPath><clipPath id="c364c5f247"><rect x="0" width="9" y="0" height="11"/></clipPath><clipPath id="ddc3142284"><path d="M 23 150 L 42 150 L 42 170 L 23 170 Z M 23 150 " clip-rule="nonzero"/></clipPath><clipPath id="c9d5b9157c"><path d="M 21.476562 164.105469 L 34.070312 147.859375 L 43.925781 155.496094 L 31.332031 171.742188 Z M 21.476562 164.105469 " clip-rule="nonzero"/></clipPath><clipPath id="d48a9e49de"><path d="M 25.296875 159.175781 L 30.246094 152.789062 C 31.261719 151.484375 32.75 150.632812 34.390625 150.425781 C 36.03125 150.214844 37.6875 150.667969 38.996094 151.683594 C 40.300781 152.695312 41.152344 154.1875 41.359375 155.828125 C 41.570312 157.46875 41.117188 159.125 40.101562 160.429688 L 35.152344 166.816406 C 34.140625 168.125 32.648438 168.972656 31.007812 169.183594 C 29.367188 169.390625 27.710938 168.9375 26.40625 167.925781 C 25.097656 166.910156 24.246094 165.417969 24.039062 163.78125 C 23.832031 162.140625 24.285156 160.484375 25.296875 159.175781 Z M 25.296875 159.175781 " clip-rule="nonzero"/></clipPath><clipPath id="665f9ddee0"><path d="M 0.761719 0 L 18.761719 0 L 18.761719 19.441406 L 0.761719 19.441406 Z M 0.761719 0 " clip-rule="nonzero"/></clipPath><clipPath id="1db8c4e3ff"><path d="M -1.523438 14.105469 L 11.070312 -2.140625 L 20.925781 5.496094 L 8.332031 21.742188 Z M -1.523438 14.105469 " clip-rule="nonzero"/></clipPath><clipPath id="3d64202241"><path d="M 2.296875 9.175781 L 7.246094 2.789062 C 8.261719 1.484375 9.75 0.632812 11.390625 0.425781 C 13.03125 0.214844 14.6875 0.667969 15.996094 1.683594 C 17.300781 2.695312 18.152344 4.1875 18.359375 5.828125 C 18.570312 7.46875 18.117188 9.125 17.101562 10.429688 L 12.152344 16.816406 C 11.140625 18.125 9.648438 18.972656 8.007812 19.183594 C 6.367188 19.390625 4.710938 18.9375 3.40625 17.925781 C 2.097656 16.910156 1.246094 15.417969 1.039062 13.78125 C 0.832031 12.140625 1.285156 10.484375 2.296875 9.175781 Z M 2.296875 9.175781 " clip-rule="nonzero"/></clipPath><clipPath id="22674dc4d9"><rect x="0" width="19" y="0" height="20"/></clipPath><clipPath id="77ef2c4cde"><path d="M 95 150 L 113 150 L 113 170 L 95 170 Z M 95 150 " clip-rule="nonzero"/></clipPath><clipPath id="bfcb8b3470"><path d="M 102.746094 147.867188 L 115.34375 164.109375 L 105.492188 171.753906 L 92.894531 155.511719 Z M 102.746094 147.867188 " clip-rule="nonzero"/></clipPath><clipPath id="1299f401db"><path d="M 106.566406 152.796875 L 111.519531 159.179688 C 112.535156 160.488281 112.988281 162.140625 112.78125 163.78125 C 112.570312 165.421875 111.722656 166.914062 110.414062 167.929688 C 109.109375 168.941406 107.453125 169.394531 105.8125 169.1875 C 104.171875 168.980469 102.679688 168.128906 101.667969 166.824219 L 96.714844 160.4375 C 95.699219 159.132812 95.246094 157.476562 95.457031 155.835938 C 95.664062 154.195312 96.511719 152.703125 97.820312 151.691406 C 99.125 150.675781 100.78125 150.222656 102.421875 150.429688 C 104.0625 150.636719 105.554688 151.488281 106.566406 152.796875 Z M 106.566406 152.796875 " clip-rule="nonzero"/></clipPath><clipPath id="567b77c837"><path d="M 0.0390625 0 L 18 0 L 18 19.441406 L 0.0390625 19.441406 Z M 0.0390625 0 " clip-rule="nonzero"/></clipPath><clipPath id="770314b435"><path d="M 7.746094 -2.132812 L 20.34375 14.109375 L 10.492188 21.753906 L -2.105469 5.511719 Z M 7.746094 -2.132812 " clip-rule="nonzero"/></clipPath><clipPath id="a79d05bcce"><path d="M 11.566406 2.796875 L 16.519531 9.179688 C 17.535156 10.488281 17.988281 12.140625 17.78125 13.78125 C 17.570312 15.421875 16.722656 16.914062 15.414062 17.929688 C 14.109375 18.941406 12.453125 19.394531 10.8125 19.1875 C 9.171875 18.980469 7.679688 18.128906 6.667969 16.824219 L 1.714844 10.4375 C 0.699219 9.132812 0.246094 7.476562 0.457031 5.835938 C 0.664062 4.195312 1.511719 2.703125 2.820312 1.691406 C 4.125 0.675781 5.78125 0.222656 7.421875 0.429688 C 9.0625 0.636719 10.554688 1.488281 11.566406 2.796875 Z M 11.566406 2.796875 " clip-rule="nonzero"/></clipPath><clipPath id="d96d6a95bc"><rect x="0" width="18" y="0" height="20"/></clipPath><clipPath id="bc8e40b5d4"><path d="M 58.113281 137.296875 L 78.667969 137.296875 L 78.667969 149.765625 L 58.113281 149.765625 Z M 58.113281 137.296875 " clip-rule="nonzero"/></clipPath><clipPath id="6bf2ff30ec"><path d="M 64.347656 137.296875 L 72.425781 137.296875 C 74.082031 137.296875 75.667969 137.953125 76.835938 139.125 C 78.003906 140.292969 78.660156 141.878906 78.660156 143.53125 C 78.660156 145.1875 78.003906 146.773438 76.835938 147.941406 C 75.667969 149.109375 74.082031 149.765625 72.425781 149.765625 L 64.347656 149.765625 C 62.691406 149.765625 61.105469 149.109375 59.9375 147.941406 C 58.769531 146.773438 58.113281 145.1875 58.113281 143.53125 C 58.113281 141.878906 58.769531 140.292969 59.9375 139.125 C 61.105469 137.953125 62.691406 137.296875 64.347656 137.296875 Z M 64.347656 137.296875 " clip-rule="nonzero"/></clipPath><clipPath id="98b2cabfee"><path d="M 0.113281 0.296875 L 20.667969 0.296875 L 20.667969 12.765625 L 0.113281 12.765625 Z M 0.113281 0.296875 " clip-rule="nonzero"/></clipPath><clipPath id="3bd07d5087"><path d="M 6.347656 0.296875 L 14.425781 0.296875 C 16.082031 0.296875 17.667969 0.953125 18.835938 2.125 C 20.003906 3.292969 20.660156 4.878906 20.660156 6.53125 C 20.660156 8.1875 20.003906 9.773438 18.835938 10.941406 C 17.667969 12.109375 16.082031 12.765625 14.425781 12.765625 L 6.347656 12.765625 C 4.691406 12.765625 3.105469 12.109375 1.9375 10.941406 C 0.769531 9.773438 0.113281 8.1875 0.113281 6.53125 C 0.113281 4.878906 0.769531 3.292969 1.9375 2.125 C 3.105469 0.953125 4.691406 0.296875 6.347656 0.296875 Z M 6.347656 0.296875 " clip-rule="nonzero"/></clipPath><clipPath id="6be8db5387"><rect x="0" width="21" y="0" height="13"/></clipPath><clipPath id="02ae66fca6"><path d="M 29.019531 148.628906 L 107.753906 148.628906 L 107.753906 227.363281 L 29.019531 227.363281 Z M 29.019531 148.628906 " clip-rule="nonzero"/></clipPath><clipPath id="e4f8031b66"><path d="M 68.386719 148.628906 C 46.644531 148.628906 29.019531 166.253906 29.019531 187.996094 C 29.019531 209.738281 46.644531 227.363281 68.386719 227.363281 C 90.128906 227.363281 107.753906 209.738281 107.753906 187.996094 C 107.753906 166.253906 90.128906 148.628906 68.386719 148.628906 Z M 68.386719 148.628906 " clip-rule="nonzero"/></clipPath><clipPath id="a5906034f2"><path d="M 0.0195312 0.628906 L 78.753906 0.628906 L 78.753906 79.363281 L 0.0195312 79.363281 Z M 0.0195312 0.628906 " clip-rule="nonzero"/></clipPath><clipPath id="45f8973b18"><path d="M 39.386719 0.628906 C 17.644531 0.628906 0.0195312 18.253906 0.0195312 39.996094 C 0.0195312 61.738281 17.644531 79.363281 39.386719 79.363281 C 61.128906 79.363281 78.753906 61.738281 78.753906 39.996094 C 78.753906 18.253906 61.128906 0.628906 39.386719 0.628906 Z M 39.386719 0.628906 " clip-rule="nonzero"/></clipPath><clipPath id="9def858a35"><rect x="0" width="79" y="0" height="80"/></clipPath><clipPath id="ae262a14d2"><path d="M 29.019531 148.628906 L 107.746094 148.628906 L 107.746094 227.355469 L 29.019531 227.355469 Z M 29.019531 148.628906 " clip-rule="nonzero"/></clipPath><clipPath id="79d9edf472"><path d="M 68.382812 148.628906 C 46.640625 148.628906 29.019531 166.253906 29.019531 187.992188 C 29.019531 209.730469 46.640625 227.355469 68.382812 227.355469 C 90.121094 227.355469 107.746094 209.730469 107.746094 187.992188 C 107.746094 166.253906 90.121094 148.628906 68.382812 148.628906 Z M 68.382812 148.628906 " clip-rule="nonzero"/></clipPath><clipPath id="22f8ebc8c2"><path d="M 68.378906 159.191406 L 97.945312 159.191406 L 97.945312 217.277344 L 68.378906 217.277344 Z M 68.378906 159.191406 " clip-rule="nonzero"/></clipPath><clipPath id="0008711ff1"><path d="M 68.378906 217.179688 C 84.484375 217.179688 97.945312 203.976562 97.945312 188.183594 C 97.945312 172.390625 84.484375 159.191406 68.378906 159.191406 Z M 68.378906 217.179688 " clip-rule="nonzero"/></clipPath><clipPath id="42a11e63a6"><path d="M 0.378906 0.191406 L 29.945312 0.191406 L 29.945312 58.199219 L 0.378906 58.199219 Z M 0.378906 0.191406 " clip-rule="nonzero"/></clipPath><clipPath id="9ef5edd9cb"><path d="M 0.378906 58.179688 C 16.484375 58.179688 29.945312 44.976562 29.945312 29.183594 C 29.945312 13.390625 16.484375 0.191406 0.378906 0.191406 Z M 0.378906 58.179688 " clip-rule="nonzero"/></clipPath><clipPath id="e6a618bf6c"><rect x="0" width="30" y="0" height="59"/></clipPath></defs><rect x="-37.5" width="450" fill="#ffffff" y="-37.499999" height="449.999989" fill-opacity="1"/><rect x="-37.5" width="450" fill="#d9d9d9" y="-37.499999" height="449.999989" fill-opacity="1"/><g clip-path="url(#334bd733b9)"><g transform="matrix(1, 0, 0, 1, 121, 156)"><g clip-path="url(#527b293bc7)"><g clip-path="url(#52d21829bf)"><path fill="#000000" d="M 0.910156 0.5 L 119.78125 0.5 L 119.78125 69.820312 L 0.910156 69.820312 Z M 0.910156 0.5 " fill-opacity="1" fill-rule="nonzero"/></g></g></g></g><g clip-path="url(#6e2e867278)"><g transform="matrix(1, 0, 0, 1, 240, 156)"><g clip-path="url(#1aafc23ff6)"><g clip-path="url(#ea9762c830)"><path fill="#ffffff" d="M 0.667969 0.5 L 120.621094 0.5 L 120.621094 69.820312 L 0.667969 69.820312 Z M 0.667969 0.5 " fill-opacity="1" fill-rule="nonzero"/></g></g></g></g><g fill="#ffffff" fill-opacity="1"><g transform="translate(126.409991, 207.15145)"><g><path d="M 3.375 -25.484375 L 10.40625 -25.484375 L 10.40625 0 L 3.375 0 Z M 6.859375 -28.859375 C 5.753906 -28.859375 4.8125 -29.25 4.03125 -30.03125 C 3.25 -30.8125 2.859375 -31.722656 2.859375 -32.765625 C 2.859375 -33.796875 3.253906 -34.703125 4.046875 -35.484375 C 4.847656 -36.265625 5.804688 -36.65625 6.921875 -36.65625 C 8.023438 -36.65625 8.96875 -36.265625 9.75 -35.484375 C 10.53125 -34.703125 10.921875 -33.796875 10.921875 -32.765625 C 10.921875 -31.722656 10.519531 -30.8125 9.71875 -30.03125 C 8.925781 -29.25 7.972656 -28.859375 6.859375 -28.859375 Z M 6.859375 -28.859375 "/></g></g></g><g fill="#ffffff" fill-opacity="1"><g transform="translate(140.188939, 207.15145)"><g><path d="M 14.046875 10.921875 C 12.140625 10.921875 10.488281 10.648438 9.09375 10.109375 C 7.707031 9.578125 6.546875 8.976562 5.609375 8.3125 C 4.503906 7.550781 3.585938 6.6875 2.859375 5.71875 L 7.28125 1.296875 C 7.800781 1.890625 8.40625 2.410156 9.09375 2.859375 C 9.6875 3.242188 10.398438 3.597656 11.234375 3.921875 C 12.066406 4.253906 13.003906 4.421875 14.046875 4.421875 C 15.015625 4.421875 15.910156 4.242188 16.734375 3.890625 C 17.566406 3.546875 18.28125 3.070312 18.875 2.46875 C 19.46875 1.863281 19.9375 1.125 20.28125 0.25 C 20.625 -0.613281 20.796875 -1.5625 20.796875 -2.59375 L 20.796875 -4.6875 L 20.546875 -4.6875 C 20.023438 -3.914062 19.398438 -3.21875 18.671875 -2.59375 C 18.046875 -2.070312 17.238281 -1.59375 16.25 -1.15625 C 15.257812 -0.726562 14.085938 -0.515625 12.734375 -0.515625 C 11.316406 -0.515625 9.945312 -0.828125 8.625 -1.453125 C 7.3125 -2.078125 6.148438 -2.941406 5.140625 -4.046875 C 4.140625 -5.160156 3.332031 -6.503906 2.71875 -8.078125 C 2.113281 -9.660156 1.8125 -11.390625 1.8125 -13.265625 C 1.8125 -15.128906 2.113281 -16.847656 2.71875 -18.421875 C 3.332031 -20.003906 4.140625 -21.347656 5.140625 -22.453125 C 6.148438 -23.566406 7.3125 -24.4375 8.625 -25.0625 C 9.945312 -25.6875 11.316406 -26 12.734375 -26 C 14.085938 -26 15.257812 -25.78125 16.25 -25.34375 C 17.238281 -24.914062 18.046875 -24.441406 18.671875 -23.921875 C 19.398438 -23.296875 20.023438 -22.601562 20.546875 -21.84375 L 20.796875 -21.84375 L 20.796875 -25.484375 L 27.8125 -25.484375 L 27.8125 -2.59375 C 27.8125 -0.65625 27.472656 1.140625 26.796875 2.796875 C 26.128906 4.460938 25.175781 5.894531 23.9375 7.09375 C 22.707031 8.289062 21.253906 9.226562 19.578125 9.90625 C 17.898438 10.582031 16.054688 10.921875 14.046875 10.921875 Z M 14.8125 -7.015625 C 16.519531 -7.015625 17.941406 -7.59375 19.078125 -8.75 C 20.222656 -9.914062 20.796875 -11.421875 20.796875 -13.265625 C 20.796875 -15.097656 20.222656 -16.59375 19.078125 -17.75 C 17.941406 -18.914062 16.519531 -19.5 14.8125 -19.5 C 13.113281 -19.5 11.691406 -18.914062 10.546875 -17.75 C 9.410156 -16.59375 8.84375 -15.097656 8.84375 -13.265625 C 8.84375 -11.421875 9.410156 -9.914062 10.546875 -8.75 C 11.691406 -7.59375 13.113281 -7.015625 14.8125 -7.015625 Z M 14.8125 -7.015625 "/></g></g></g><g fill="#ffffff" fill-opacity="1"><g transform="translate(171.386573, 207.15145)"><g><path d="M 18.984375 0.515625 C 17.597656 0.515625 16.410156 0.300781 15.421875 -0.125 C 14.429688 -0.5625 13.585938 -1.039062 12.890625 -1.5625 C 12.097656 -2.1875 11.441406 -2.878906 10.921875 -3.640625 L 10.65625 -3.640625 L 10.65625 0 L 3.640625 0 L 3.640625 -36.40625 L 10.65625 -36.40625 L 10.65625 -21.84375 L 10.921875 -21.84375 C 11.441406 -22.601562 12.097656 -23.296875 12.890625 -23.921875 C 13.585938 -24.441406 14.429688 -24.914062 15.421875 -25.34375 C 16.410156 -25.78125 17.597656 -26 18.984375 -26 C 20.472656 -26 21.910156 -25.671875 23.296875 -25.015625 C 24.679688 -24.359375 25.898438 -23.445312 26.953125 -22.28125 C 28.015625 -21.125 28.859375 -19.726562 29.484375 -18.09375 C 30.109375 -16.46875 30.421875 -14.679688 30.421875 -12.734375 C 30.421875 -10.796875 30.109375 -9.007812 29.484375 -7.375 C 28.859375 -5.75 28.015625 -4.347656 26.953125 -3.171875 C 25.898438 -1.992188 24.679688 -1.082031 23.296875 -0.4375 C 21.910156 0.195312 20.472656 0.515625 18.984375 0.515625 Z M 16.90625 -5.984375 C 17.800781 -5.984375 18.644531 -6.15625 19.4375 -6.5 C 20.238281 -6.84375 20.929688 -7.304688 21.515625 -7.890625 C 22.109375 -8.484375 22.570312 -9.195312 22.90625 -10.03125 C 23.238281 -10.863281 23.40625 -11.765625 23.40625 -12.734375 C 23.40625 -13.710938 23.238281 -14.613281 22.90625 -15.4375 C 22.570312 -16.269531 22.109375 -16.976562 21.515625 -17.5625 C 20.929688 -18.15625 20.238281 -18.625 19.4375 -18.96875 C 18.644531 -19.320312 17.800781 -19.5 16.90625 -19.5 C 16 -19.5 15.144531 -19.320312 14.34375 -18.96875 C 13.550781 -18.625 12.859375 -18.15625 12.265625 -17.5625 C 11.679688 -16.976562 11.222656 -16.269531 10.890625 -15.4375 C 10.566406 -14.613281 10.40625 -13.710938 10.40625 -12.734375 C 10.40625 -11.765625 10.566406 -10.863281 10.890625 -10.03125 C 11.222656 -9.195312 11.679688 -8.484375 12.265625 -7.890625 C 12.859375 -7.304688 13.550781 -6.84375 14.34375 -6.5 C 15.144531 -6.15625 16 -5.984375 16.90625 -5.984375 Z M 16.90625 -5.984375 "/></g></g></g><g fill="#ffffff" fill-opacity="1"><g transform="translate(203.62412, 207.15145)"><g><path d="M 15.34375 0.515625 C 13.46875 0.515625 11.707031 0.171875 10.0625 -0.515625 C 8.414062 -1.210938 6.976562 -2.164062 5.75 -3.375 C 4.519531 -4.59375 3.554688 -6 2.859375 -7.59375 C 2.160156 -9.1875 1.8125 -10.898438 1.8125 -12.734375 C 1.8125 -14.535156 2.160156 -16.242188 2.859375 -17.859375 C 3.554688 -19.472656 4.519531 -20.882812 5.75 -22.09375 C 6.976562 -23.3125 8.414062 -24.265625 10.0625 -24.953125 C 11.707031 -25.648438 13.46875 -26 15.34375 -26 C 17.207031 -26 18.960938 -25.648438 20.609375 -24.953125 C 22.265625 -24.265625 23.707031 -23.3125 24.9375 -22.09375 C 26.164062 -20.882812 27.125 -19.472656 27.8125 -17.859375 C 28.507812 -16.242188 28.859375 -14.535156 28.859375 -12.734375 C 28.859375 -10.898438 28.507812 -9.1875 27.8125 -7.59375 C 27.125 -6 26.164062 -4.59375 24.9375 -3.375 C 23.707031 -2.164062 22.265625 -1.210938 20.609375 -0.515625 C 18.960938 0.171875 17.207031 0.515625 15.34375 0.515625 Z M 15.34375 -5.984375 C 16.238281 -5.984375 17.082031 -6.15625 17.875 -6.5 C 18.675781 -6.84375 19.375 -7.304688 19.96875 -7.890625 C 20.5625 -8.484375 21.019531 -9.195312 21.34375 -10.03125 C 21.675781 -10.863281 21.84375 -11.765625 21.84375 -12.734375 C 21.84375 -13.710938 21.675781 -14.613281 21.34375 -15.4375 C 21.019531 -16.269531 20.5625 -16.976562 19.96875 -17.5625 C 19.375 -18.15625 18.675781 -18.625 17.875 -18.96875 C 17.082031 -19.320312 16.238281 -19.5 15.34375 -19.5 C 14.4375 -19.5 13.582031 -19.320312 12.78125 -18.96875 C 11.988281 -18.625 11.296875 -18.15625 10.703125 -17.5625 C 10.117188 -16.976562 9.660156 -16.269531 9.328125 -15.4375 C 9.003906 -14.613281 8.84375 -13.710938 8.84375 -12.734375 C 8.84375 -11.765625 9.003906 -10.863281 9.328125 -10.03125 C 9.660156 -9.195312 10.117188 -8.484375 10.703125 -7.890625 C 11.296875 -7.304688 11.988281 -6.84375 12.78125 -6.5 C 13.582031 -6.15625 14.4375 -5.984375 15.34375 -5.984375 Z M 15.34375 -5.984375 "/></g></g></g><g fill="#ffffff" fill-opacity="1"><g transform="translate(234.301791, 207.15145)"><g/></g></g><g fill="#000000" fill-opacity="1"><g transform="translate(245.226389, 207.15145)"><g><path d="M 3.375 -25.484375 L 10.40625 -25.484375 L 10.40625 0 L 3.375 0 Z M 6.859375 -28.859375 C 5.753906 -28.859375 4.8125 -29.25 4.03125 -30.03125 C 3.25 -30.8125 2.859375 -31.722656 2.859375 -32.765625 C 2.859375 -33.796875 3.253906 -34.703125 4.046875 -35.484375 C 4.847656 -36.265625 5.804688 -36.65625 6.921875 -36.65625 C 8.023438 -36.65625 8.96875 -36.265625 9.75 -35.484375 C 10.53125 -34.703125 10.921875 -33.796875 10.921875 -32.765625 C 10.921875 -31.722656 10.519531 -30.8125 9.71875 -30.03125 C 8.925781 -29.25 7.972656 -28.859375 6.859375 -28.859375 Z M 6.859375 -28.859375 "/></g></g></g><g fill="#000000" fill-opacity="1"><g transform="translate(259.005338, 207.15145)"><g><path d="M 3.375 -25.484375 L 10.40625 -25.484375 L 10.40625 -21.84375 L 10.65625 -21.84375 C 11.207031 -22.601562 11.847656 -23.296875 12.578125 -23.921875 C 13.203125 -24.441406 13.984375 -24.914062 14.921875 -25.34375 C 15.859375 -25.78125 16.953125 -26 18.203125 -26 C 19.484375 -26 20.695312 -25.742188 21.84375 -25.234375 C 22.988281 -24.734375 23.984375 -24.023438 24.828125 -23.109375 C 25.679688 -22.191406 26.347656 -21.070312 26.828125 -19.75 C 27.316406 -18.4375 27.5625 -16.96875 27.5625 -15.34375 L 27.5625 0 L 20.546875 0 L 20.546875 -14.296875 C 20.546875 -15.859375 20.128906 -17.070312 19.296875 -17.9375 C 18.460938 -18.800781 17.316406 -19.234375 15.859375 -19.234375 C 14.296875 -19.234375 12.992188 -18.703125 11.953125 -17.640625 C 10.921875 -16.585938 10.40625 -15.210938 10.40625 -13.515625 L 10.40625 0 L 3.375 0 Z M 3.375 -25.484375 "/></g></g></g><g fill="#000000" fill-opacity="1"><g transform="translate(289.942984, 207.15145)"><g><path d="M 14.296875 0.78125 C 12.015625 0.78125 10.015625 0.488281 8.296875 -0.09375 C 6.578125 -0.6875 5.144531 -1.347656 4 -2.078125 C 2.644531 -2.910156 1.484375 -3.863281 0.515625 -4.9375 L 5.71875 -10.140625 C 6.34375 -9.410156 7.054688 -8.75 7.859375 -8.15625 C 8.546875 -7.675781 9.363281 -7.234375 10.3125 -6.828125 C 11.269531 -6.429688 12.335938 -6.234375 13.515625 -6.234375 C 15.597656 -6.234375 17.160156 -6.675781 18.203125 -7.5625 C 19.242188 -8.445312 19.765625 -9.476562 19.765625 -10.65625 C 19.765625 -11.832031 19.269531 -12.863281 18.28125 -13.75 C 17.289062 -14.632812 15.878906 -15.078125 14.046875 -15.078125 L 9.875 -15.078125 L 9.875 -21.84375 L 13.515625 -21.84375 C 15.078125 -21.84375 16.289062 -22.238281 17.15625 -23.03125 C 18.019531 -23.832031 18.453125 -24.820312 18.453125 -26 C 18.453125 -27.175781 18.019531 -28.160156 17.15625 -28.953125 C 16.289062 -29.753906 15.078125 -30.15625 13.515625 -30.15625 C 12.515625 -30.15625 11.625 -29.960938 10.84375 -29.578125 C 10.0625 -29.203125 9.375 -28.789062 8.78125 -28.34375 C 8.125 -27.789062 7.535156 -27.179688 7.015625 -26.515625 L 1.8125 -31.71875 C 2.6875 -32.726562 3.726562 -33.628906 4.9375 -34.421875 C 5.976562 -35.117188 7.28125 -35.753906 8.84375 -36.328125 C 10.40625 -36.898438 12.222656 -37.1875 14.296875 -37.1875 C 16.097656 -37.1875 17.753906 -36.898438 19.265625 -36.328125 C 20.773438 -35.753906 22.066406 -35 23.140625 -34.0625 C 24.210938 -33.125 25.039062 -32.039062 25.625 -30.8125 C 26.21875 -29.582031 26.515625 -28.328125 26.515625 -27.046875 C 26.515625 -25.515625 26.210938 -24.253906 25.609375 -23.265625 C 25.003906 -22.273438 24.351562 -21.488281 23.65625 -20.90625 C 22.789062 -20.207031 21.835938 -19.648438 20.796875 -19.234375 C 22.078125 -18.785156 23.238281 -18.144531 24.28125 -17.3125 C 24.726562 -16.96875 25.160156 -16.5625 25.578125 -16.09375 C 25.992188 -15.625 26.367188 -15.09375 26.703125 -14.5 C 27.035156 -13.914062 27.300781 -13.257812 27.5 -12.53125 C 27.707031 -11.800781 27.8125 -11.003906 27.8125 -10.140625 C 27.8125 -8.722656 27.5 -7.351562 26.875 -6.03125 C 26.257812 -4.71875 25.359375 -3.554688 24.171875 -2.546875 C 22.992188 -1.546875 21.570312 -0.738281 19.90625 -0.125 C 18.25 0.476562 16.378906 0.78125 14.296875 0.78125 Z M 14.296875 0.78125 "/></g></g></g><g fill="#000000" fill-opacity="1"><g transform="translate(319.840718, 207.15145)"><g><path d="M 18.203125 0.78125 C 16.117188 0.78125 14.128906 0.335938 12.234375 -0.546875 C 10.347656 -1.429688 8.691406 -2.6875 7.265625 -4.3125 C 5.847656 -5.945312 4.710938 -7.941406 3.859375 -10.296875 C 3.015625 -12.648438 2.59375 -15.285156 2.59375 -18.203125 C 2.59375 -21.109375 3.015625 -23.738281 3.859375 -26.09375 C 4.710938 -28.457031 5.847656 -30.453125 7.265625 -32.078125 C 8.691406 -33.710938 10.347656 -34.972656 12.234375 -35.859375 C 14.128906 -36.742188 16.117188 -37.1875 18.203125 -37.1875 C 20.273438 -37.1875 22.253906 -36.742188 24.140625 -35.859375 C 26.035156 -34.972656 27.691406 -33.710938 29.109375 -32.078125 C 30.535156 -30.453125 31.671875 -28.457031 32.515625 -26.09375 C 33.367188 -23.738281 33.796875 -21.109375 33.796875 -18.203125 C 33.796875 -15.285156 33.367188 -12.648438 32.515625 -10.296875 C 31.671875 -7.941406 30.535156 -5.945312 29.109375 -4.3125 C 27.691406 -2.6875 26.035156 -1.429688 24.140625 -0.546875 C 22.253906 0.335938 20.273438 0.78125 18.203125 0.78125 Z M 18.203125 -6.5 C 19.171875 -6.5 20.125 -6.738281 21.0625 -7.21875 C 22 -7.707031 22.828125 -8.4375 23.546875 -9.40625 C 24.273438 -10.382812 24.863281 -11.609375 25.3125 -13.078125 C 25.769531 -14.546875 26 -16.253906 26 -18.203125 C 26 -20.140625 25.769531 -21.84375 25.3125 -23.3125 C 24.863281 -24.789062 24.273438 -26.015625 23.546875 -26.984375 C 22.828125 -27.953125 22 -28.679688 21.0625 -29.171875 C 20.125 -29.660156 19.171875 -29.90625 18.203125 -29.90625 C 17.234375 -29.90625 16.28125 -29.660156 15.34375 -29.171875 C 14.40625 -28.679688 13.570312 -27.953125 12.84375 -26.984375 C 12.113281 -26.015625 11.523438 -24.789062 11.078125 -23.3125 C 10.628906 -21.84375 10.40625 -20.140625 10.40625 -18.203125 C 10.40625 -16.253906 10.628906 -14.546875 11.078125 -13.078125 C 11.523438 -11.609375 12.113281 -10.382812 12.84375 -9.40625 C 13.570312 -8.4375 14.40625 -7.707031 15.34375 -7.21875 C 16.28125 -6.738281 17.234375 -6.5 18.203125 -6.5 Z M 18.203125 -6.5 "/></g></g></g><g clip-path="url(#1a1a0f65c2)"><g clip-path="url(#8e26d7b3eb)"><g clip-path="url(#a2eec4a012)"><g transform="matrix(1, 0, 0, 1, 80, 223)"><g clip-path="url(#c9929f001e)"><g clip-path="url(#da3762c8cd)"><g clip-path="url(#b599827ca1)"><g clip-path="url(#07463f2e71)"><path fill="#d84700" d="M 17.4375 6.984375 L 3.414062 13.851562 L -0.753906 5.34375 L 13.269531 -1.523438 Z M 17.4375 6.984375 " fill-opacity="1" fill-rule="nonzero"/></g></g></g></g></g></g></g></g><path stroke-linecap="butt" transform="matrix(-0.678655, 0.31926, -0.31926, -0.678655, 110.038891, 217.293355)" fill="none" stroke-linejoin="miter" d="M 3.054059 18.394074 C 23.102097 -0.130976 43.143944 -0.130802 63.191243 18.394315 " stroke="#d9d9d9" stroke-width="9" stroke-opacity="1" stroke-miterlimit="4"/><g clip-path="url(#614c15c146)"><g clip-path="url(#1b4ec988c7)"><g clip-path="url(#6b321f0a25)"><g transform="matrix(1, 0, 0, 1, 105, 200)"><g clip-path="url(#d5577ce1ce)"><g clip-path="url(#0d6a9655af)"><g clip-path="url(#096889d0b6)"><g clip-path="url(#e6974f1138)"><path fill="#d84700" d="M 8.832031 1.851562 L 5.242188 10.871094 L -0.230469 8.695312 L 3.359375 -0.324219 Z M 8.832031 1.851562 " fill-opacity="1" fill-rule="nonzero"/></g></g></g></g></g></g></g></g><path stroke-linecap="butt" transform="matrix(-0.288298, 0.692376, -0.692376, -0.288298, 114.072705, 190.803182)" fill="none" stroke-linejoin="miter" d="M 1.695556 11.139594 C 14.157418 -0.379494 26.620561 -0.378548 39.078174 11.139626 " stroke="#d9d9d9" stroke-width="5" stroke-opacity="1" stroke-miterlimit="4"/><g clip-path="url(#73db35146f)"><g clip-path="url(#d55140394f)"><g clip-path="url(#57c95a15d0)"><g transform="matrix(1, 0, 0, 1, 96, 211)"><g clip-path="url(#02b3921172)"><g clip-path="url(#9d777b771d)"><g clip-path="url(#f7832e7f7a)"><g clip-path="url(#b06484dfa5)"><path fill="#d84700" d="M 13.082031 4.375 L 4.496094 13.679688 L -1.148438 8.472656 L 7.4375 -0.835938 Z M 13.082031 4.375 " fill-opacity="1" fill-rule="nonzero"/></g></g></g></g></g></g></g></g><path stroke-linecap="butt" transform="matrix(-0.517274, 0.543072, -0.543072, -0.517274, 114.315657, 201.995744)" fill="none" stroke-linejoin="miter" d="M 2.036078 14.264817 C 18.290373 -0.757008 34.540195 -0.755843 50.796679 14.2649 " stroke="#d9d9d9" stroke-width="6" stroke-opacity="1" stroke-miterlimit="4"/><g clip-path="url(#43e4f7cfd3)"><g clip-path="url(#44089740ee)"><g transform="matrix(1, 0, 0, 1, 59, 228)"><g clip-path="url(#c035f389df)"><g clip-path="url(#8f2b05217f)"><g clip-path="url(#a9b425e244)"><path fill="#d84700" d="M 18.667969 11.601562 L 0.09375 11.601562 L 0.09375 0.335938 L 18.667969 0.335938 Z M 18.667969 11.601562 " fill-opacity="1" fill-rule="nonzero"/></g></g></g></g></g></g><path stroke-linecap="butt" transform="matrix(-0.749906, -0.011863, 0.011863, -0.749906, 97.338133, 232.010435)" fill="none" stroke-linejoin="miter" d="M 3.054628 21.025521 C 26.891351 -1.010522 50.732926 -1.007424 74.568773 21.024564 " stroke="#d9d9d9" stroke-width="9" stroke-opacity="1" stroke-miterlimit="4"/><g clip-path="url(#f8633b0ab3)"><g clip-path="url(#1f1fee020a)"><g clip-path="url(#e5f3677b55)"><g transform="matrix(1, 0, 0, 1, 39, 221)"><g clip-path="url(#29ba2ce8c6)"><g clip-path="url(#118d66007f)"><g clip-path="url(#fd9a00edec)"><g clip-path="url(#6bc8855823)"><path fill="#d84700" d="M 13.257812 14.605469 L -0.773438 7.746094 L 3.386719 -0.765625 L 17.417969 6.09375 Z M 13.257812 14.605469 " fill-opacity="1" fill-rule="nonzero"/></g></g></g></g></g></g></g></g><path stroke-linecap="butt" transform="matrix(-0.668504, -0.340004, 0.340004, -0.668504, 70.005614, 237.771635)" fill="none" stroke-linejoin="miter" d="M 3.055091 18.398248 C 23.097309 -0.133659 43.145528 -0.133758 63.192745 18.395672 " stroke="#d9d9d9" stroke-width="9" stroke-opacity="1" stroke-miterlimit="4"/><g clip-path="url(#614eab54d1)"><g clip-path="url(#36574cd0ef)"><g clip-path="url(#7ae2eccf61)"><g transform="matrix(1, 0, 0, 1, 28, 210)"><g clip-path="url(#2bc6dbd9ba)"><g clip-path="url(#ba12f9780c)"><g clip-path="url(#ec88bf15c1)"><g clip-path="url(#a6afc79226)"><path fill="#d84700" d="M 7.464844 13.382812 L -1.121094 4.078125 L 4.523438 -1.132812 L 13.109375 8.175781 Z M 7.464844 13.382812 " fill-opacity="1" fill-rule="nonzero"/></g></g></g></g></g></g></g></g><path stroke-linecap="butt" transform="matrix(-0.499797, -0.559198, 0.559198, -0.499797, 48.380605, 229.676205)" fill="none" stroke-linejoin="miter" d="M 2.037933 14.266481 C 18.288339 -0.757763 34.540653 -0.754606 50.794461 14.268599 " stroke="#d9d9d9" stroke-width="6" stroke-opacity="1" stroke-miterlimit="4"/><g clip-path="url(#f2ee0d61c5)"><g clip-path="url(#fe970db6d2)"><g clip-path="url(#b2e855bda8)"><g transform="matrix(1, 0, 0, 1, 22, 198)"><g clip-path="url(#c364c5f247)"><g clip-path="url(#f1faad9aaf)"><g clip-path="url(#549424de45)"><g clip-path="url(#7f28300206)"><path fill="#d84700" d="M 3.554688 11.089844 L -0.0273438 2.070312 L 5.445312 -0.105469 L 9.027344 8.917969 Z M 3.554688 11.089844 " fill-opacity="1" fill-rule="nonzero"/></g></g></g></g></g></g></g></g><path stroke-linecap="butt" transform="matrix(-0.26568, -0.701366, 0.701366, -0.26568, 32.956899, 217.295187)" fill="none" stroke-linejoin="miter" d="M 1.699299 11.136806 C 14.159319 -0.378356 26.619404 -0.38136 39.080734 11.139381 " stroke="#d9d9d9" stroke-width="5" stroke-opacity="1" stroke-miterlimit="4"/><g clip-path="url(#ddc3142284)"><g clip-path="url(#c9d5b9157c)"><g clip-path="url(#d48a9e49de)"><g transform="matrix(1, 0, 0, 1, 23, 150)"><g clip-path="url(#22674dc4d9)"><g clip-path="url(#665f9ddee0)"><g clip-path="url(#1db8c4e3ff)"><g clip-path="url(#3d64202241)"><path fill="#000000" d="M -1.523438 14.105469 L 11.070312 -2.140625 L 20.925781 5.496094 L 8.332031 21.742188 Z M -1.523438 14.105469 " fill-opacity="1" fill-rule="nonzero"/></g></g></g></g></g></g></g></g><path stroke-linecap="butt" transform="matrix(0.468835, -0.585401, 0.585401, 0.468835, 14.30626, 186.430812)" fill="none" stroke-linejoin="miter" d="M 3.734739 23.790782 C 30.119122 -0.596215 56.50436 -0.594886 82.890453 23.794771 " stroke="#d9d9d9" stroke-width="11" stroke-opacity="1" stroke-miterlimit="4"/><g clip-path="url(#77ef2c4cde)"><g clip-path="url(#bfcb8b3470)"><g clip-path="url(#1299f401db)"><g transform="matrix(1, 0, 0, 1, 95, 150)"><g clip-path="url(#d96d6a95bc)"><g clip-path="url(#567b77c837)"><g clip-path="url(#770314b435)"><g clip-path="url(#a79d05bcce)"><path fill="#000000" d="M 7.746094 -2.132812 L 20.34375 14.109375 L 10.492188 21.753906 L -2.105469 5.511719 Z M 7.746094 -2.132812 " fill-opacity="1" fill-rule="nonzero"/></g></g></g></g></g></g></g></g><path stroke-linecap="butt" transform="matrix(0.450249, 0.599813, -0.599813, 0.450249, 82.904449, 135.366627)" fill="none" stroke-linejoin="miter" d="M 3.732784 23.788623 C 30.119999 -0.597297 56.502295 -0.597798 82.891129 23.789206 " stroke="#d9d9d9" stroke-width="11" stroke-opacity="1" stroke-miterlimit="4"/><g clip-path="url(#bc8e40b5d4)"><g clip-path="url(#6bf2ff30ec)"><g transform="matrix(1, 0, 0, 1, 58, 137)"><g clip-path="url(#6be8db5387)"><g clip-path="url(#98b2cabfee)"><g clip-path="url(#3bd07d5087)"><path fill="#000000" d="M 0.113281 0.296875 L 20.667969 0.296875 L 20.667969 12.765625 L 0.113281 12.765625 Z M 0.113281 0.296875 " fill-opacity="1" fill-rule="nonzero"/></g></g></g></g></g></g><path stroke-linecap="butt" transform="matrix(0.749906, 0.011863, -0.011863, 0.749906, 36.071457, 145.310748)" fill="none" stroke-linejoin="miter" d="M 3.734611 23.789992 C 30.117768 -0.599123 56.506476 -0.599856 82.890404 23.793165 " stroke="#d9d9d9" stroke-width="11" stroke-opacity="1" stroke-miterlimit="4"/><g clip-path="url(#02ae66fca6)"><g clip-path="url(#e4f8031b66)"><g transform="matrix(1, 0, 0, 1, 29, 148)"><g clip-path="url(#9def858a35)"><g clip-path="url(#a5906034f2)"><g clip-path="url(#45f8973b18)"><path fill="#ffffff" d="M 0.0195312 0.628906 L 78.753906 0.628906 L 78.753906 79.363281 L 0.0195312 79.363281 Z M 0.0195312 0.628906 " fill-opacity="1" fill-rule="nonzero"/></g></g></g></g></g></g><g clip-path="url(#ae262a14d2)"><g clip-path="url(#79d9edf472)"><path stroke-linecap="butt" transform="matrix(0.75, 0, 0, 0.75, 29.018894, 148.628647)" fill="none" stroke-linejoin="miter" d="M 52.485228 0.000345613 C 23.495643 0.000345613 0.000849514 23.500347 0.000849514 52.484724 C 0.000849514 81.469101 23.495643 104.969103 52.485228 104.969103 C 81.469605 104.969103 104.969606 81.469101 104.969606 52.484724 C 104.969606 23.500347 81.469605 0.000345613 52.485228 0.000345613 Z M 52.485228 0.000345613 " stroke="#000000" stroke-width="18" stroke-opacity="1" stroke-miterlimit="4"/></g></g><g clip-path="url(#22f8ebc8c2)"><g clip-path="url(#0008711ff1)"><g transform="matrix(1, 0, 0, 1, 68, 159)"><g clip-path="url(#e6a618bf6c)"><g clip-path="url(#42a11e63a6)"><g clip-path="url(#9ef5edd9cb)"><path fill="#d84700" d="M 29.945312 0.191406 L 29.945312 58.160156 L 0.378906 58.160156 L 0.378906 0.191406 Z M 29.945312 0.191406 " fill-opacity="1" fill-rule="nonzero"/></g></g></g></g></g></g></svg>